<?xml version="1.0" standalone="no"?>
<!DOCTYPE svg PUBLIC "-//W3C//DTD SVG 20010904//EN"
 "http://www.w3.org/TR/2001/REC-SVG-20010904/DTD/svg10.dtd">
<svg version="1.0" xmlns="http://www.w3.org/2000/svg"
 width="899.000000pt" height="1280.000000pt" viewBox="0 0 899.000000 1280.000000"
 preserveAspectRatio="xMidYMid meet">
<metadata>
Created by potrace 1.15, written by Peter Selinger 2001-2017
</metadata>
<g transform="translate(0.000000,1280.000000) scale(0.100000,-0.100000)"
fill="#ff9800" stroke="none">
<path d="M1680 12795 c0 -15 156 -122 165 -113 6 5 -54 68 -65 68 -5 0 -10 4
-10 8 0 5 -16 16 -35 25 -35 17 -55 21 -55 12z"/>
<path d="M1414 12731 c11 -11 23 -21 28 -21 14 0 -1 19 -25 31 -22 12 -22 12
-3 -10z"/>
<path d="M1520 12695 c7 -9 15 -13 17 -11 7 7 -7 26 -19 26 -6 0 -6 -6 2 -15z"/>
<path d="M1603 12686 c16 -15 39 -26 55 -25 l27 0 -25 11 c-14 5 -38 17 -55
25 l-30 15 28 -26z"/>
<path d="M1417 12693 c-39 -2 -65 -8 -62 -13 4 -6 20 -10 36 -10 18 0 28 -4
24 -10 -3 -5 -22 -10 -41 -10 -29 0 -44 -9 -85 -50 -27 -27 -55 -47 -63 -44
-7 3 -18 -2 -25 -10 -16 -19 2 -30 35 -22 26 7 31 -3 12 -22 -18 -18 4 -15 31
4 13 9 52 19 89 22 37 2 72 9 79 14 7 5 21 7 33 3 23 -7 26 4 8 24 -11 12 -9
13 7 6 75 -29 96 -34 148 -35 55 0 58 1 55 22 -4 29 -77 84 -131 99 -23 7 -49
18 -58 26 -8 7 -17 12 -20 11 -2 -1 -35 -3 -72 -5z m253 -133 c0 -5 -2 -10 -4
-10 -3 0 -8 5 -11 10 -3 6 -1 10 4 10 6 0 11 -4 11 -10z"/>
<path d="M1293 12663 c-18 -6 -16 -23 1 -23 17 0 30 16 19 23 -5 2 -14 2 -20
0z"/>
<path d="M1697 12650 c-4 -15 -10 -19 -19 -14 -10 6 -10 4 1 -9 7 -9 21 -17
30 -17 20 0 121 -42 121 -50 0 -3 -13 -16 -30 -28 -36 -27 -38 -42 -7 -42 14
1 37 18 61 46 34 40 37 48 28 69 -17 36 -52 54 -119 61 -56 6 -60 5 -66 -16z"/>
<path d="M1220 12629 c0 -5 5 -7 10 -4 6 3 10 8 10 11 0 2 -4 4 -10 4 -5 0
-10 -5 -10 -11z"/>
<path d="M1935 12560 c-20 -38 -19 -40 9 -40 30 0 40 14 32 46 -8 32 -22 30
-41 -6z"/>
<path d="M1712 12568 c5 -15 68 -24 68 -10 0 10 -32 22 -58 22 -8 0 -12 -6
-10 -12z"/>
<path d="M1015 12538 c-56 -42 -128 -77 -193 -94 -64 -17 -133 -53 -131 -68 1
-6 1 -20 0 -31 l-2 -20 -9 20 c-5 11 -11 29 -15 40 -3 11 -9 15 -13 10 -18
-25 -134 -95 -157 -95 -27 0 -32 9 -14 27 8 8 8 17 1 29 -9 15 -12 13 -31 -22
-21 -40 -81 -114 -81 -100 0 4 5 16 11 27 6 11 8 25 6 32 -3 7 -15 -10 -27
-36 -28 -63 -37 -174 -20 -262 11 -60 11 -69 -3 -77 -14 -7 -15 -12 -4 -29 10
-17 9 -22 -5 -30 -9 -5 -15 -16 -12 -23 3 -7 -2 -16 -11 -20 -10 -3 -15 -12
-12 -20 8 -19 -39 -61 -90 -81 -49 -20 -53 -31 -18 -47 32 -15 32 -30 0 -22
-14 3 -33 3 -42 -1 -16 -6 -16 -8 5 -16 28 -11 29 -29 1 -29 -32 0 -6 -27 34
-35 54 -11 97 -26 97 -34 0 -5 -18 -5 -40 -1 l-39 7 19 -27 c11 -16 20 -34 20
-42 0 -8 6 -20 13 -27 10 -11 8 -11 -11 -2 -35 19 -25 -2 15 -29 l37 -25 -30
-3 c-30 -3 -65 8 -96 30 -22 16 -35 3 -18 -17 7 -8 11 -15 9 -16 -2 0 -14 -2
-27 -3 -13 -2 -30 -10 -39 -19 -15 -15 -11 -17 45 -33 63 -18 77 -37 19 -27
-24 4 -37 0 -51 -16 -11 -12 -14 -21 -8 -21 6 0 14 5 17 10 8 13 72 13 80 0
10 -17 -34 -50 -68 -50 -17 0 -45 -9 -60 -19 l-29 -19 23 -16 c13 -9 31 -16
41 -16 10 0 18 -4 18 -10 0 -5 -16 -10 -36 -10 -21 0 -33 -4 -29 -10 3 -5 18
-10 33 -10 53 0 55 -17 4 -24 -27 -3 -55 -12 -61 -20 -6 -7 -14 -54 -18 -105
l-6 -91 27 0 c41 0 64 16 71 50 8 36 27 35 35 -1 5 -19 13 -24 38 -25 17 0 34
-3 38 -7 5 -5 -57 -26 -121 -40 -11 -3 -3 -5 17 -6 45 -1 74 -11 59 -20 -16
-10 9 -260 25 -254 7 3 13 -26 17 -94 3 -63 17 -141 38 -218 17 -66 35 -145
39 -175 8 -64 105 -264 115 -237 4 8 -5 118 -19 244 -42 386 -46 522 -12 493
8 -6 17 -22 21 -37 3 -14 9 -23 12 -20 3 4 -1 28 -10 54 -22 69 -31 157 -18
180 8 14 10 8 11 -34 0 -33 4 -53 11 -53 8 0 10 14 6 43 -6 44 4 67 29 67 13
0 54 -101 54 -135 0 -13 5 -27 11 -31 9 -5 11 5 7 37 -3 24 -2 53 2 64 6 17 8
16 13 -10 3 -16 9 -52 13 -80 5 -37 8 -45 14 -30 5 16 10 9 25 -34 9 -29 26
-63 36 -75 11 -11 26 -29 34 -38 8 -10 15 -30 16 -45 0 -16 5 -37 10 -48 7
-14 8 -5 3 30 -22 186 -30 400 -15 391 11 -7 20 -64 29 -181 5 -63 9 -83 14
-65 4 14 8 37 8 52 0 15 4 29 9 33 14 8 53 -47 48 -67 -3 -10 -2 -20 3 -23 4
-3 11 -21 14 -40 4 -21 13 -35 21 -35 8 0 15 -5 15 -12 0 -9 3 -9 12 0 19 19
28 14 28 -14 0 -14 4 -23 10 -19 5 3 16 -5 25 -18 12 -19 14 -48 10 -158 -2
-75 -11 -156 -19 -184 -19 -60 -15 -66 10 -20 19 36 42 49 30 18 -13 -34 -19
-106 -9 -100 13 8 33 -66 33 -123 0 -22 6 -56 14 -75 8 -18 18 -59 21 -89 4
-31 11 -59 16 -62 6 -3 7 13 4 38 l-5 43 20 -55 c10 -30 19 -63 19 -74 1 -16
-1 -17 -16 -5 -15 12 -16 12 -10 -4 4 -10 7 -46 7 -80 0 -47 3 -58 12 -49 22
22 28 13 28 -37 0 -28 4 -52 9 -55 14 -9 21 46 11 89 -7 31 -6 43 7 57 12 13
14 29 8 70 -9 73 -15 89 -27 82 -8 -5 -9 -1 -5 10 4 10 7 27 7 39 1 22 1 22
15 3 14 -18 15 -18 15 -2 0 9 5 14 10 11 6 -3 10 -18 10 -33 1 -24 2 -25 12
-8 6 11 8 41 5 72 -3 30 -1 56 4 59 5 4 9 3 9 -1 0 -4 7 -52 16 -107 l16 -100
-29 -23 -28 -24 26 -22 c15 -13 44 -36 64 -52 36 -28 37 -30 17 -37 -12 -5
-22 -15 -22 -23 0 -8 -7 -19 -17 -24 -20 -12 -10 -47 12 -38 11 4 15 -1 15
-18 0 -20 -4 -23 -21 -19 -18 5 -20 3 -14 -17 4 -13 19 -33 32 -44 16 -14 24
-29 21 -41 -4 -18 -6 -17 -18 8 -14 28 -34 35 -45 17 -11 -18 -32 -178 -27
-210 3 -24 7 -28 18 -20 7 6 16 26 20 43 3 17 10 38 14 47 4 8 13 26 18 40 9
21 11 16 12 -35 0 -46 3 -56 11 -42 5 9 16 17 23 17 8 0 16 7 20 15 12 33 26
12 27 -42 0 -49 2 -55 11 -35 20 41 25 22 10 -40 -15 -64 -36 -128 -54 -161
-5 -11 -7 -21 -5 -24 3 -2 21 23 41 55 35 59 46 89 26 77 -5 -3 -10 0 -10 7 0
19 29 57 30 40 0 -7 5 -10 11 -6 6 4 8 21 5 43 -5 31 -4 33 5 14 17 -32 2
-104 -31 -157 -35 -55 -38 -66 -10 -41 21 19 28 7 8 -13 -8 -8 -8 -12 -1 -12
6 0 11 -10 11 -22 1 -61 19 -249 25 -255 14 -13 22 10 25 77 2 39 8 67 13 64
5 -3 9 -18 9 -33 0 -34 19 -91 30 -91 15 0 30 63 30 125 0 115 18 153 61 127
15 -10 18 -8 21 16 2 20 9 27 25 27 13 0 23 5 24 10 0 6 5 15 11 22 5 7 6 31
3 57 -5 30 -4 46 3 46 12 0 18 -16 27 -80 7 -41 18 -59 38 -60 4 0 7 28 7 62
0 52 2 60 13 48 16 -18 61 -128 76 -184 6 -21 20 -50 33 -63 12 -13 23 -38 24
-56 1 -18 5 -41 9 -52 5 -16 2 -14 -18 7 -17 18 -23 34 -20 48 8 29 -6 25 -18
-7 -12 -31 2 -107 31 -166 11 -21 17 -44 14 -52 -6 -16 55 -65 82 -65 27 0 49
-16 35 -24 -6 -4 -15 -5 -21 -1 -15 9 -60 -6 -60 -21 0 -19 -9 -18 -45 6 -44
29 -52 24 -16 -10 17 -17 31 -36 31 -43 0 -7 12 -30 26 -51 l27 -39 -26 -77
c-33 -96 -44 -160 -28 -160 6 0 11 6 11 14 0 7 8 16 18 18 18 5 62 77 62 101
0 7 16 51 35 97 19 46 35 95 35 108 0 31 18 19 28 -21 5 -18 14 -31 20 -30 15
4 20 -23 25 -142 3 -61 9 -101 16 -103 6 -2 11 -21 11 -43 0 -22 8 -51 17 -65
20 -32 31 -181 15 -211 -6 -11 -9 -37 -5 -57 5 -29 8 -34 19 -25 11 9 14 6 14
-14 0 -14 -4 -29 -10 -32 -5 -3 -10 -14 -10 -23 0 -12 7 -8 21 13 l21 30 -6
-45 c-3 -25 -8 -54 -12 -63 -4 -13 -2 -16 9 -12 30 12 36 -69 9 -114 l-18 -30
-19 32 c-16 27 -16 30 -2 19 14 -12 19 -12 32 1 30 30 7 87 -30 73 -24 -9 -17
-26 11 -26 14 0 23 -4 19 -10 -3 -5 -17 -10 -31 -10 -17 0 -24 -5 -24 -20 0
-13 -13 -28 -34 -40 -21 -13 -40 -36 -51 -63 -9 -23 -21 -50 -26 -59 -12 -23
-11 -28 1 -28 6 0 10 5 10 11 0 6 11 24 25 41 14 16 25 27 25 25 0 -3 -14 -39
-30 -80 -24 -60 -28 -81 -20 -101 11 -30 17 -32 41 -10 16 15 18 11 24 -53 14
-159 53 -280 121 -379 24 -35 44 -70 44 -77 0 -38 108 -165 129 -153 6 4 27
-6 46 -21 27 -22 41 -45 60 -103 30 -93 60 -244 74 -375 19 -174 32 -264 66
-485 19 -118 42 -300 50 -405 26 -320 81 -768 120 -976 29 -156 52 -262 134
-609 83 -353 103 -449 96 -460 -7 -11 -98 -40 -312 -101 -155 -43 -197 -63
-100 -47 28 5 85 12 126 16 45 4 76 12 79 20 2 6 15 12 28 12 13 0 24 5 24 10
0 7 13 8 35 4 26 -4 36 -2 40 8 4 9 15 13 29 11 13 -3 28 2 35 11 8 9 21 16
31 16 28 0 44 70 19 86 -6 3 -8 15 -5 27 3 11 1 28 -4 37 -5 9 -14 48 -20 86
-6 38 -18 92 -27 119 -14 44 -31 118 -49 220 -3 17 -9 39 -15 50 -10 22 -29
96 -34 135 -12 77 -27 163 -40 220 -7 36 -17 91 -20 123 -5 41 -12 61 -25 70
-17 10 -18 13 -4 28 12 13 12 21 2 45 -6 16 -15 74 -19 129 -3 55 -12 132 -18
170 -45 265 -60 414 -61 577 0 124 -3 149 -17 164 -12 12 -20 49 -29 128 -6
61 -26 199 -44 306 -17 107 -40 247 -50 310 -17 110 -98 428 -118 467 -5 10
-13 37 -17 61 -4 24 -13 56 -21 70 -8 16 -14 57 -14 97 0 58 -4 74 -20 88 -20
17 -29 74 -10 62 14 -9 4 36 -21 94 -21 49 -24 68 -9 73 13 4 -17 98 -31 98
-5 0 -9 9 -9 21 0 11 5 17 10 14 6 -3 10 -1 10 5 0 6 -7 13 -15 16 -8 4 -15
17 -15 29 0 13 -5 27 -11 31 -7 4 -9 24 -6 53 5 48 -8 151 -23 186 -9 19 -18
116 -19 195 -1 43 -21 80 -21 39 0 -53 -15 -38 -32 32 -25 105 -33 179 -19
179 7 0 11 23 11 61 0 55 -3 64 -30 89 -20 18 -32 41 -36 70 -6 34 -4 41 6 35
10 -6 11 -4 5 11 -27 64 -37 107 -42 172 -3 39 -9 72 -13 72 -4 0 -10 37 -14
82 -4 46 -15 141 -26 213 -29 196 -70 597 -70 678 0 129 46 276 125 407 42 68
43 78 10 56 -13 -9 -37 -16 -53 -16 -28 0 -301 144 -534 281 -107 63 -120 74
-161 136 -45 69 -79 132 -98 179 -8 22 -7 25 6 20 24 -9 56 8 107 55 58 54 66
83 39 138 -27 53 -52 65 -115 57 -61 -7 -197 -73 -204 -98 -2 -10 -11 -18 -18
-18 -17 0 -18 -12 -2 -28 9 -9 6 -12 -13 -12 -15 0 -37 12 -53 29 l-27 29 28
19 c42 30 110 63 130 63 13 0 14 3 6 11 -11 11 -65 6 -184 -18 -22 -4 -36 7
-106 89 -88 101 -186 198 -202 198 -12 0 -26 42 -45 139 -13 60 -13 83 -4 113
12 40 58 88 84 88 37 0 73 31 84 71 6 22 19 43 28 46 9 4 40 32 68 62 62 68
138 109 225 121 35 5 114 25 174 44 146 45 158 47 245 29 41 -9 95 -19 120
-23 25 -5 64 -14 87 -20 55 -16 78 -8 63 20 -9 16 -8 25 2 38 22 29 31 32 93
32 33 0 70 3 83 6 24 7 30 24 8 24 -8 0 -37 12 -65 27 -43 22 -55 24 -76 15
-21 -10 -32 -8 -63 8 -21 11 -67 22 -102 25 -36 3 -80 8 -99 10 -51 6 -27 -8
41 -25 34 -8 64 -21 66 -29 4 -12 -7 -13 -63 -8 -72 7 -118 28 -109 51 4 10
-5 16 -28 21 -18 4 -89 20 -157 36 -175 42 -196 44 -305 24 -107 -19 -136 -15
-58 9 59 17 146 24 369 31 90 2 175 8 189 11 26 7 26 8 9 20 -22 16 -20 17 20
5 37 -10 77 3 69 22 -6 15 52 27 133 27 51 0 152 24 198 47 52 26 145 88 145
96 0 5 -4 6 -9 2 -8 -4 -61 38 -61 50 0 6 99 25 129 25 30 0 41 15 41 52 0 24
-4 23 -117 -27 -122 -54 -190 -65 -404 -65 -148 0 -188 3 -192 14 -4 10 19 14
114 19 104 4 127 9 181 35 35 16 74 39 88 51 l25 22 -35 -7 c-19 -5 -62 -8
-95 -7 -33 1 -126 -5 -206 -13 -106 -11 -154 -12 -174 -4 -28 11 -154 0 -220
-20 -16 -4 -43 -11 -59 -15 -26 -5 -28 -4 -17 9 12 14 10 16 -10 16 -20 0
-110 -21 -239 -56 -25 -7 -25 -7 -6 14 10 12 40 34 65 48 84 48 381 248 376
253 -3 2 -67 -27 -142 -65 -75 -38 -141 -70 -147 -72 -28 -8 78 75 147 116 42
24 75 47 73 50 -3 2 -26 -8 -51 -22 -25 -15 -49 -25 -53 -22 -16 9 -235 -109
-296 -161 -29 -24 -42 -30 -48 -21 -6 9 -10 7 -14 -9 -3 -12 -15 -25 -25 -28
-10 -4 -19 -10 -19 -14 0 -7 -43 -31 -55 -31 -2 0 6 19 18 42 21 40 76 86 158
131 20 11 29 21 22 25 -6 4 24 27 70 52 44 25 101 64 126 87 53 49 45 56 -14
11z m-49 -163 c-11 -8 -25 -15 -30 -15 -6 1 0 7 14 15 32 19 40 18 16 0z m-76
-115 c-7 -14 -19 -20 -33 -18 -24 3 -31 33 -7 33 8 0 19 6 24 13 14 24 30 -2
16 -28z m-65 -30 c-3 -5 -15 -10 -26 -10 -11 0 -17 5 -14 10 3 6 15 10 26 10
11 0 17 -4 14 -10z m-460 -210 c3 -5 1 -10 -4 -10 -6 0 -11 5 -11 10 0 6 2 10
4 10 3 0 8 -4 11 -10z m1475 -370 c0 -5 -4 -10 -10 -10 -5 0 -10 5 -10 10 0 6
5 10 10 10 6 0 10 -4 10 -10z m-1645 -550 c-3 -5 -13 -10 -21 -10 -8 0 -14 5
-14 10 0 6 9 10 21 10 11 0 17 -4 14 -10z m1090 -591 c4 -11 23 -27 42 -35 34
-15 35 -15 17 -35 -44 -49 -86 -42 -118 20 -13 25 -13 31 0 50 19 27 51 27 59
0z m95 1 c0 -5 -4 -10 -10 -10 -5 0 -10 5 -10 10 0 6 5 10 10 10 6 0 10 -4 10
-10z m-174 -888 c-12 -12 -18 8 -10 35 l8 28 4 -28 c2 -16 1 -31 -2 -35z m-27
-114 c5 -13 7 -25 5 -27 -7 -7 -34 21 -34 35 0 22 20 16 29 -8z m166 -215 c28
-58 9 -48 -24 13 -22 40 -25 52 -11 39 10 -9 26 -33 35 -52z m371 -291 c-10
-9 -15 2 -21 39 l-5 34 15 -34 c9 -18 14 -36 11 -39z m-311 -182 c-4 -12 -9
-19 -12 -17 -3 3 -2 15 2 27 4 12 9 19 12 17 3 -3 2 -15 -2 -27z m1 -147 c-10
-10 -19 5 -10 18 6 11 8 11 12 0 2 -7 1 -15 -2 -18z m841 -1275 c-3 -8 -6 -5
-6 6 -1 11 2 17 5 13 3 -3 4 -12 1 -19z m113 -999 c0 -6 -4 -7 -10 -4 -5 3
-10 11 -10 16 0 6 5 7 10 4 6 -3 10 -11 10 -16z m120 -75 c0 -8 -5 -12 -10 -9
-6 4 -8 11 -5 16 9 14 15 11 15 -7z"/>
<path d="M1375 12475 c-39 -17 -24 -18 45 0 48 12 51 13 20 14 -19 0 -48 -6
-65 -14z"/>
<path d="M2020 12447 c0 -7 7 -22 16 -33 14 -17 15 -17 10 -1 -3 10 -6 25 -6
33 0 8 -4 14 -10 14 -5 0 -10 -6 -10 -13z"/>
<path d="M1526 12443 c-3 -4 -16 -8 -28 -10 -32 -5 -132 -52 -125 -59 8 -8
207 57 207 68 0 10 -44 11 -54 1z"/>
<path d="M2106 12441 c-4 -5 -2 -12 4 -16 15 -9 12 -25 -5 -25 -8 0 -15 -4
-15 -9 0 -6 -16 -27 -35 -48 -19 -21 -31 -41 -27 -44 4 -4 24 -12 46 -18 36
-10 40 -8 67 20 40 43 46 69 20 90 -11 9 -21 22 -21 27 0 16 -27 34 -34 23z"/>
<path d="M1990 12423 c0 -14 19 -38 25 -32 8 8 -5 39 -16 39 -5 0 -9 -3 -9 -7z"/>
<path d="M1325 12400 c-8 -13 5 -13 25 0 13 8 13 10 -2 10 -9 0 -20 -4 -23
-10z"/>
<path d="M1835 12400 c3 -5 8 -10 11 -10 2 0 4 5 4 10 0 6 -5 10 -11 10 -5 0
-7 -4 -4 -10z"/>
<path d="M1753 12384 c-18 -9 -33 -21 -33 -26 0 -5 5 -6 10 -3 23 14 7 -19
-22 -47 l-33 -30 40 7 c46 8 64 20 76 52 5 13 15 23 24 23 20 0 19 26 -1 34
-22 8 -25 8 -61 -10z"/>
<path d="M1670 12350 c0 -5 5 -10 10 -10 6 0 10 5 10 10 0 6 -4 10 -10 10 -5
0 -10 -4 -10 -10z"/>
<path d="M1595 12320 c-3 -5 -1 -10 4 -10 6 0 11 5 11 10 0 6 -2 10 -4 10 -3
0 -8 -4 -11 -10z"/>
<path d="M2167 12293 c-10 -9 -9 -23 2 -23 5 0 11 7 15 15 5 15 -5 20 -17 8z"/>
<path d="M2035 12260 c-3 -5 1 -10 9 -10 9 0 16 5 16 10 0 6 -4 10 -9 10 -6 0
-13 -4 -16 -10z"/>
<path d="M2110 12114 l-25 -15 25 7 c14 3 29 10 35 15 15 14 -7 10 -35 -7z"/>
<path d="M2510 11969 l-55 -19 50 5 c159 16 239 25 243 30 3 3 -37 5 -89 4
-64 -1 -112 -7 -149 -20z"/>
<path d="M1640 11900 c0 -5 5 -10 11 -10 5 0 7 5 4 10 -3 6 -8 10 -11 10 -2 0
-4 -4 -4 -10z"/>
<path d="M2265 11896 c-11 -8 -16 -20 -12 -29 6 -15 10 -15 48 -2 23 8 52 15
65 15 27 0 32 15 8 24 -28 11 -90 6 -109 -8z"/>
<path d="M2834 11889 c-4 -7 -25 -9 -55 -7 -27 3 -72 1 -101 -3 -58 -9 -258
-87 -258 -101 0 -10 3 -10 33 1 19 7 27 5 40 -9 15 -17 103 -50 134 -50 19 0
168 -76 223 -113 61 -42 156 -133 191 -184 34 -48 38 -70 7 -33 l-21 25 7 -25
c7 -24 7 -25 -9 -5 -9 11 -30 44 -47 72 -16 29 -51 72 -76 94 -77 68 -356 191
-398 175 -9 -3 -25 -1 -37 6 -23 12 -145 20 -161 11 -8 -5 58 -48 111 -72 24
-11 101 -104 136 -163 26 -45 33 -47 41 -13 4 14 12 25 20 25 7 0 25 11 41 25
21 20 30 23 41 15 7 -7 17 -9 22 -6 24 15 61 -37 76 -105 11 -52 66 -40 80 17
4 13 11 24 16 24 12 0 90 -131 90 -152 0 -21 -56 -68 -81 -68 -10 0 -19 -3
-19 -6 0 -3 38 -65 84 -138 151 -238 195 -335 197 -441 l1 -40 12 29 c17 37
21 28 36 -66 17 -104 9 -241 -17 -298 l-20 -45 -7 80 c-4 44 -8 91 -9 105 -2
18 -8 10 -21 -32 -9 -32 -20 -58 -23 -58 -3 0 -2 24 1 53 6 45 4 54 -13 64
-11 7 -26 10 -33 7 -12 -5 -98 -134 -98 -147 0 -19 -91 -195 -109 -211 -15
-14 -18 -23 -11 -37 8 -13 27 -19 80 -25 l70 -7 100 -96 c55 -53 117 -111 138
-129 25 -22 29 -30 13 -22 -35 18 -17 -6 19 -25 16 -8 35 -26 42 -38 7 -13 36
-55 65 -93 68 -89 183 -282 183 -305 0 -28 57 -128 102 -179 22 -25 58 -76 81
-115 36 -63 119 -195 317 -510 127 -201 190 -308 190 -325 0 -9 7 -25 16 -36
14 -18 15 -18 10 6 -4 16 2 10 14 -15 11 -22 20 -54 20 -72 0 -17 4 -33 9 -35
11 -4 141 -387 141 -417 0 -12 -6 -23 -12 -25 -61 -16 -170 -50 -198 -62 -19
-7 -64 -20 -100 -29 -36 -9 -81 -22 -100 -29 -19 -8 -64 -21 -100 -31 -36 -9
-85 -23 -110 -30 -149 -46 -420 -63 -468 -30 -50 36 -102 183 -102 290 0 19
-9 61 -19 92 -11 32 -19 65 -20 73 -1 23 -25 124 -33 135 -3 6 -9 26 -13 46
-5 28 -3 38 9 42 18 7 23 91 6 117 -7 11 -10 5 -10 -24 0 -56 -8 -40 -18 34
-6 40 -5 73 1 90 16 41 -23 116 -63 122 l-30 5 6 -101 c9 -141 37 -319 68
-431 33 -114 99 -428 112 -530 8 -60 21 -130 29 -155 21 -64 91 -390 104 -481
6 -42 15 -88 21 -103 5 -15 10 -42 10 -59 0 -18 9 -75 21 -127 19 -89 39 -188
74 -372 8 -43 21 -103 29 -135 20 -78 35 -167 46 -266 5 -45 14 -109 20 -142
13 -62 7 -967 -6 -1030 -5 -25 -4 -28 7 -18 21 21 29 15 19 -13 -7 -18 -7 -46
-1 -83 6 -31 13 -315 16 -631 2 -316 8 -609 11 -651 l7 -76 -62 -13 c-127 -27
-81 -35 169 -32 130 3 240 19 395 59 83 21 167 14 200 -17 14 -13 27 -22 29
-19 5 6 36 67 36 72 0 7 -86 27 -115 27 -17 0 -24 -4 -19 -11 4 -7 2 -10 -6
-7 -7 2 -18 21 -26 43 -7 22 -20 45 -29 51 -8 6 -15 16 -15 23 0 6 -5 11 -10
11 -6 0 -9 3 -8 8 1 4 -3 17 -10 29 -7 13 -8 23 -3 23 9 0 21 39 27 89 4 37
108 184 197 278 135 142 310 245 577 338 96 33 146 46 355 90 44 10 117 26
163 35 140 31 297 43 532 43 286 -1 322 -8 511 -104 135 -68 148 -78 249 -178
111 -110 197 -237 221 -325 15 -57 88 -156 115 -156 30 0 60 147 84 425 7 72
16 136 20 144 4 8 3 22 -3 32 -6 9 -7 25 -2 35 4 11 7 37 6 60 -3 56 28 351
40 383 6 14 29 55 51 89 46 71 45 83 -9 115 -38 22 -55 15 -76 -27 -30 -65
-151 -176 -190 -176 -9 0 -29 -11 -44 -24 -75 -63 -278 -116 -446 -116 -54 0
-88 -5 -110 -17 -27 -14 -82 -18 -382 -24 -192 -4 -390 -12 -440 -18 -201 -24
-305 -41 -399 -65 -54 -14 -115 -26 -135 -26 -20 0 -44 -7 -55 -15 -10 -8 -39
-17 -65 -21 -25 -4 -57 -12 -71 -19 -67 -34 -161 -75 -171 -75 -6 0 -23 -6
-37 -14 -15 -8 -46 -20 -70 -27 -24 -7 -48 -21 -53 -31 -5 -10 -31 -29 -57
-41 -71 -35 -92 -50 -92 -68 0 -9 -11 -21 -25 -27 -14 -6 -25 -18 -25 -26 0
-22 -49 -76 -70 -76 -10 0 -23 -6 -29 -14 -10 -12 -8 -15 11 -18 23 -4 23 -4
-4 -18 -16 -7 -28 -17 -28 -22 0 -5 3 -7 8 -5 4 3 -11 -32 -32 -76 -27 -56
-41 -98 -42 -132 -2 -27 -11 -72 -20 -99 -16 -44 -18 -47 -31 -30 -7 10 -13
26 -13 36 0 10 -9 27 -20 38 -11 11 -20 31 -20 44 0 13 -6 29 -14 35 -14 12
-85 223 -150 446 -69 238 -126 485 -142 616 -9 74 -22 149 -30 168 -16 39 -17
44 -5 37 9 -6 -10 82 -28 126 -6 16 -10 63 -9 107 0 43 -4 87 -10 97 -9 15
-12 16 -13 4 -1 -8 -5 3 -10 25 -13 64 -11 393 3 397 16 6 11 141 -7 175 -8
16 -15 38 -15 49 0 12 -7 41 -15 64 -8 23 -20 82 -27 131 -6 49 -15 89 -19 89
-12 0 -32 98 -25 125 4 15 -2 39 -18 69 -13 25 -27 64 -31 86 -4 22 -11 42
-15 45 -5 3 -6 22 -3 42 5 28 2 39 -12 49 -12 9 -16 20 -11 38 3 14 1 26 -5
28 -8 3 -10 19 -5 51 4 26 11 45 15 43 4 -3 14 6 22 20 12 23 46 53 91 79 100
59 148 85 158 85 6 0 19 9 28 20 10 12 28 22 42 23 14 2 51 20 84 41 32 21
129 72 215 113 86 41 170 82 186 91 227 122 504 206 716 216 42 2 81 6 85 8
13 8 146 18 253 20 84 1 95 -1 110 -20 9 -11 33 -24 54 -27 20 -4 40 -11 43
-16 12 -20 105 -9 171 21 37 17 79 30 93 28 59 -5 150 23 150 47 0 26 50 37
160 34 l104 -3 14 33 c11 28 11 47 -2 125 -9 50 -19 138 -22 196 -5 84 -10
109 -26 127 -13 14 -22 42 -25 82 -3 34 -10 61 -14 61 -5 0 -6 -33 -2 -74 l6
-74 -59 -7 c-32 -4 -72 -10 -89 -13 -16 -4 -111 -5 -210 -2 -168 6 -181 5
-196 -13 -12 -15 -23 -17 -51 -12 -24 5 -47 2 -70 -9 -22 -10 -51 -14 -88 -11
-30 2 -75 -1 -100 -6 -41 -9 -172 -28 -245 -34 -16 -2 -66 -8 -110 -14 -271
-36 -307 -38 -328 -17 -8 8 -22 45 -31 83 -17 68 -26 89 -73 193 -38 83 -120
217 -163 269 -49 59 -128 198 -246 431 -51 102 -139 268 -194 370 -55 102
-103 196 -106 210 -8 40 -31 81 -74 135 -22 28 -44 61 -48 75 -4 14 -58 102
-121 195 -126 187 -285 363 -366 405 -71 37 -69 52 13 90 67 30 75 42 23 34
-50 -8 -55 9 -10 34 61 34 63 36 48 60 -8 12 -20 20 -26 17 -18 -6 -35 30 -31
68 3 30 5 32 46 32 56 0 67 -18 53 -83 -5 -26 -8 -48 -7 -50 2 -1 19 5 39 13
53 22 46 1 -8 -24 -25 -12 -45 -25 -45 -30 0 -24 25 -20 72 10 28 18 78 42
111 54 62 21 87 45 46 45 -20 0 -18 3 12 25 19 13 44 32 56 41 29 20 113 20
155 0 17 -9 46 -16 65 -16 18 0 33 -4 33 -10 0 -6 -35 -10 -85 -10 -47 0 -85
-4 -85 -9 0 -9 101 -27 215 -37 66 -7 73 -10 113 -51 55 -55 63 -55 18 1 -42
51 -46 65 -11 42 22 -14 25 -15 25 -1 0 9 9 15 23 15 18 0 19 2 7 10 -9 7 -51
8 -109 4 -77 -5 -93 -4 -89 7 2 8 22 20 43 27 34 11 51 10 120 -4 128 -27 142
-28 128 -13 -22 22 -15 29 30 29 24 0 48 5 53 10 9 9 71 -5 163 -37 9 -3 0 10
-18 30 -27 28 -43 37 -68 37 -18 0 -33 5 -33 10 0 13 -137 4 -240 -17 -89 -17
-125 -12 -203 30 -112 59 -210 204 -282 416 -51 151 -95 250 -117 262 -18 10
-19 8 -13 -11 11 -35 -12 -15 -35 30 -11 22 -20 49 -20 60 0 14 -5 20 -17 18
-14 -2 -18 3 -16 27 1 17 -1 22 -4 12 -8 -29 -23 -8 -16 24 5 25 -4 44 -51
114 -31 47 -56 92 -56 101 0 8 -13 28 -29 44 -16 16 -26 31 -24 34 3 3 -9 23
-26 44 -17 22 -31 48 -31 58 0 11 -10 30 -21 44 l-21 25 6 -30 c3 -16 10 -52
16 -80 5 -27 14 -115 20 -195 9 -112 18 -165 40 -230 15 -47 27 -86 25 -88 -5
-5 -45 97 -59 152 -8 31 -20 120 -26 199 -6 78 -13 156 -16 172 -17 81 -105
188 -186 225 -50 23 -64 24 -74 9z m-2 -65 c18 -12 6 -24 -24 -24 -32 1 -68
19 -68 35 0 8 76 -1 92 -11z m-98 -40 c9 -3 16 -10 16 -14 0 -8 -58 4 -68 15
-7 7 33 6 52 -1z m-84 -34 c0 -5 -2 -10 -4 -10 -3 0 -8 5 -11 10 -3 6 -1 10 4
10 6 0 11 -4 11 -10z m315 -171 c11 -17 2 -18 -19 -3 -17 12 -17 14 -4 14 9 0
20 -5 23 -11z m363 -425 c-4 -3 -12 5 -18 18 -12 22 -12 22 6 6 10 -10 15 -20
12 -24z m96 -63 c-6 -6 -24 19 -24 34 1 6 7 1 15 -9 8 -11 12 -22 9 -25z m-43
-160 c50 -63 63 -87 31 -58 -10 10 -21 15 -24 12 -11 -11 -51 47 -88 130 -28
64 -36 91 -27 97 8 5 19 -14 35 -56 13 -36 45 -91 73 -125z m28 107 c12 -21
20 -38 17 -38 -9 0 -66 91 -66 104 0 11 12 -6 49 -66z m-179 52 c0 -5 -2 -10
-4 -10 -3 0 -8 5 -11 10 -3 6 -1 10 4 10 6 0 11 -4 11 -10z m120 -11 c0 -6 -4
-7 -10 -4 -5 3 -10 11 -10 16 0 6 5 7 10 4 6 -3 10 -11 10 -16z m145 -23 c1 0
6 -13 13 -28 16 -39 2 -35 -32 8 -28 36 -28 36 -5 29 13 -4 24 -8 24 -9z
m-203 -60 c10 -19 10 -20 -6 -7 -9 8 -22 24 -28 35 -10 19 -10 20 6 7 9 -8 22
-24 28 -35z m183 -124 c-9 -10 -23 38 -17 59 5 21 7 19 13 -16 4 -22 5 -42 4
-43z m83 -18 l-3 -29 -17 32 c-13 24 -15 33 -5 36 19 7 29 -8 25 -39z m-28
-55 c0 -6 -4 -7 -10 -4 -5 3 -10 11 -10 16 0 6 5 7 10 4 6 -3 10 -11 10 -16z
m33 -136 c5 -7 4 -13 -2 -13 -16 0 -46 63 -32 68 6 2 12 11 12 20 1 10 4 -1 8
-23 4 -22 10 -46 14 -52z m-78 -343 c-3 -5 -11 -10 -16 -10 -6 0 -7 5 -4 10 3
6 11 10 16 10 6 0 7 -4 4 -10z m-314 -148 c-18 -35 -38 -45 -68 -35 l-28 10
40 21 c51 27 69 28 56 4z m-167 -67 c-7 -16 -24 -21 -24 -6 0 8 7 13 27 20 1
1 0 -6 -3 -14z m2676 -2305 c0 -5 -5 -10 -11 -10 -5 0 -7 5 -4 10 3 6 8 10 11
10 2 0 4 -4 4 -10z m263 -17 c-7 -2 -21 -2 -30 0 -10 3 -4 5 12 5 17 0 24 -2
18 -5z m227 -2 c0 -5 -9 -7 -20 -4 -11 3 -20 7 -20 9 0 2 9 4 20 4 11 0 20 -4
20 -9z m-115 -11 c8 -13 -5 -13 -25 0 -13 8 -13 10 2 10 9 0 20 -4 23 -10z
m-95 -305 c0 -8 -2 -15 -4 -15 -2 0 -6 7 -10 15 -3 8 -1 15 4 15 6 0 10 -7 10
-15z m255 -5 c9 -15 -40 -30 -99 -30 -28 0 -57 -5 -64 -12 -9 -9 -12 -9 -12 0
0 17 34 32 98 41 31 5 60 9 64 10 4 0 10 -4 13 -9z m-340 -120 c16 -7 13 -9
-16 -9 -38 -1 -147 -35 -163 -51 -18 -18 -105 -11 -148 11 -37 19 -39 22 -23
31 9 6 81 14 159 18 77 4 148 7 156 8 8 0 24 -3 35 -8z m-2195 -2304 c0 -8 -4
-18 -10 -21 -5 -3 -10 3 -10 14 0 12 5 21 10 21 6 0 10 -6 10 -14z m159 -876
c114 -448 226 -750 370 -997 l31 -52 -28 -5 c-36 -7 -367 -63 -414 -69 -43 -6
-36 -27 -75 208 l-27 160 -3 674 c-2 370 -1 681 3 690 4 9 25 -73 49 -194 23
-115 66 -302 94 -415z m-130 -1070 c1 -39 -2 -51 -9 -40 -5 8 -9 53 -9 100 1
75 2 80 10 40 4 -25 8 -70 8 -100z m666 -10 c3 -5 2 -10 -4 -10 -5 0 -13 5
-16 10 -3 6 -2 10 4 10 5 0 13 -4 16 -10z"/>
<path d="M1700 11885 c0 -9 103 -55 123 -55 38 0 9 25 -49 42 -64 19 -74 21
-74 13z"/>
<path d="M2241 11614 c6 -7 19 -16 30 -19 10 -4 19 -11 19 -17 0 -5 -7 -7 -16
-4 -9 4 -13 2 -8 -5 8 -14 115 -62 121 -55 3 3 -3 20 -14 38 -15 25 -33 37
-81 54 -41 14 -58 17 -51 8z"/>
<path d="M2080 11613 c0 -13 29 -38 35 -31 3 3 -4 13 -15 23 -11 10 -20 13
-20 8z"/>
<path d="M110 11560 c0 -5 7 -10 16 -10 8 0 12 5 9 10 -3 6 -10 10 -16 10 -5
0 -9 -4 -9 -10z"/>
<path d="M1725 11240 c-3 -5 -1 -10 4 -10 6 0 11 5 11 10 0 6 -2 10 -4 10 -3
0 -8 -4 -11 -10z"/>
<path d="M1584 11148 c-121 -116 -157 -168 -152 -218 4 -46 2 -48 -20 -19 -17
20 -17 19 -17 -15 0 -21 5 -36 12 -36 26 0 76 57 134 151 33 54 80 118 103
141 48 49 64 78 40 78 -8 0 -53 -37 -100 -82z"/>
<path d="M3430 11191 c0 -5 5 -13 10 -16 6 -3 10 -2 10 4 0 5 -4 13 -10 16 -5
3 -10 2 -10 -4z"/>
<path d="M3677 11091 c7 -26 43 -60 43 -40 0 33 -14 59 -30 59 -13 0 -17 -6
-13 -19z"/>
<path d="M1800 11080 c-30 -11 -65 -19 -77 -20 -14 0 -23 -6 -23 -15 0 -8 -22
-37 -50 -63 -46 -44 -50 -52 -50 -95 0 -25 4 -57 10 -72 19 -49 123 -72 169
-37 75 56 142 115 150 131 6 10 8 34 5 53 -5 29 -1 39 27 67 l33 34 -23 18
c-30 25 -99 24 -171 -1z m-13 -159 c43 -28 51 -37 41 -48 -16 -19 -75 -49
-115 -58 l-33 -7 0 50 c0 35 6 57 21 76 12 15 24 26 28 24 3 -2 30 -19 58 -37z
m63 13 c0 -20 -16 -25 -44 -13 -38 18 -33 36 9 31 20 -2 35 -10 35 -18z"/>
<path d="M3730 10946 c0 -59 3 -69 30 -98 l30 -33 -6 35 c-4 19 -13 53 -20 75
-8 22 -14 48 -14 57 0 9 -4 20 -10 23 -6 4 -10 -18 -10 -59z"/>
<path d="M3625 10865 c10 -59 27 -81 19 -25 -3 25 -11 50 -16 55 -7 7 -8 -3
-3 -30z"/>
<path d="M3744 10809 c19 -71 19 -70 -3 -76 -24 -6 -29 -33 -6 -33 8 0 15 -5
15 -11 0 -7 -7 -8 -17 -4 -36 15 -53 17 -53 7 0 -6 24 -46 53 -89 67 -101 141
-154 222 -161 38 -3 55 -1 55 7 0 7 -4 10 -9 7 -5 -3 -30 6 -55 20 l-46 26 0
56 c0 79 -8 101 -38 109 -24 6 -71 49 -72 66 0 4 23 -4 50 -18 39 -20 50 -22
50 -11 0 8 -5 18 -11 22 -6 3 -9 14 -6 25 3 10 -3 25 -14 35 -18 16 -19 16
-19 -21 l0 -38 -30 41 c-16 23 -39 46 -51 53 -20 10 -21 9 -15 -12z m81 -229
c-3 -5 9 -17 27 -26 18 -10 27 -19 20 -21 -6 -3 -31 9 -54 26 -41 30 -41 31
-14 31 15 0 25 -4 21 -10z m55 -10 c0 -5 -4 -10 -9 -10 -6 0 -13 5 -16 10 -3
6 1 10 9 10 9 0 16 -4 16 -10z"/>
<path d="M105 10810 c-3 -5 -1 -10 4 -10 6 0 11 5 11 10 0 6 -2 10 -4 10 -3 0
-8 -4 -11 -10z"/>
<path d="M53 10788 c-14 -19 -16 -241 -3 -323 6 -39 26 -108 45 -155 37 -91
39 -117 5 -51 -11 23 -22 41 -25 41 -12 0 49 -125 66 -136 8 -5 8 -1 0 14 -6
12 -7 23 -2 26 8 5 -11 88 -45 196 -12 39 -13 40 -9 10 4 -31 3 -33 -8 -15 -8
14 -12 75 -11 213 1 105 0 192 -1 192 -1 0 -7 -6 -12 -12z"/>
<path d="M8 10747 c-13 -30 -9 -186 3 -165 5 10 9 55 7 100 -2 49 -6 76 -10
65z"/>
<path d="M423 10743 c3 -10 8 -35 12 -55 6 -40 24 -63 19 -25 -11 76 -16 97
-25 97 -6 0 -8 -8 -6 -17z"/>
<path d="M3920 10608 c0 -22 14 -36 44 -48 43 -16 46 -2 6 31 -37 32 -50 36
-50 17z"/>
<path d="M4468 10559 c-47 -24 -48 -32 -3 -23 23 4 35 2 35 -5 0 -11 74 -83
93 -90 6 -2 8 5 5 17 -5 19 -4 20 16 9 26 -15 36 -27 36 -47 0 -13 -1 -13 -10
0 -12 18 -13 -18 -3 -110 6 -58 7 -61 19 -39 17 31 17 111 1 176 -20 77 -75
150 -96 127 -3 -4 0 -9 7 -11 24 -9 11 -19 -19 -15 -20 3 -29 9 -25 18 7 19
-12 17 -56 -7z"/>
<path d="M493 10495 c0 -22 2 -30 4 -17 2 12 2 30 0 40 -3 9 -5 -1 -4 -23z"/>
<path d="M380 10505 c0 -7 5 -17 11 -21 6 -3 9 -15 6 -25 -3 -10 -1 -21 3 -24
5 -3 18 -26 30 -51 34 -68 36 -45 5 45 -25 72 -55 113 -55 76z"/>
<path d="M3950 10500 c0 -13 46 -24 67 -16 15 6 15 8 3 16 -20 13 -70 13 -70
0z"/>
<path d="M3630 10390 c0 -5 17 -10 38 -10 27 0 33 3 22 10 -20 13 -60 13 -60
0z"/>
<path d="M4210 10310 c0 -21 69 -146 91 -166 44 -41 94 -64 134 -64 36 0 46
-6 103 -67 l64 -68 -32 -6 c-43 -9 -47 -16 -11 -24 17 -4 37 -14 43 -24 7 -10
21 -20 31 -24 30 -11 15 56 -24 105 -19 24 -41 56 -49 72 -8 15 -33 41 -55 56
-23 16 -47 36 -55 45 -7 9 -23 21 -34 27 -20 11 -20 10 -3 -16 10 -15 13 -26
7 -26 -26 0 -54 25 -106 95 -58 80 -104 117 -104 85z m335 -260 c10 -11 14
-20 9 -20 -5 0 -15 9 -22 20 -7 11 -11 20 -9 20 2 0 12 -9 22 -20z"/>
<path d="M214 10274 c10 -41 24 -51 18 -14 -2 17 -9 33 -15 37 -6 4 -7 -4 -3
-23z"/>
<path d="M3770 10277 c-47 -19 -55 -26 -58 -51 l-4 -29 32 26 c28 24 40 27
109 27 52 0 83 -5 97 -15 18 -14 18 -14 -5 -15 -23 0 -23 -1 9 -37 18 -21 44
-44 56 -51 13 -7 52 -39 86 -72 35 -33 70 -62 78 -65 16 -6 61 -61 91 -112 10
-18 27 -33 37 -33 10 0 38 -20 62 -45 40 -41 90 -61 90 -36 0 17 -324 337
-420 416 -91 75 -158 115 -190 114 -8 0 -40 -10 -70 -22z"/>
<path d="M1833 10195 c-25 -22 -26 -24 -8 -25 19 0 85 34 85 45 0 15 -53 2
-77 -20z"/>
<path d="M2295 10176 c-27 -25 -89 -66 -137 -92 -86 -46 -111 -69 -106 -96 2
-7 -4 -12 -14 -10 -25 4 -42 -32 -22 -49 13 -11 11 -16 -17 -45 -39 -40 -36
-68 8 -72 26 -3 34 2 45 25 7 15 23 32 35 39 13 6 39 32 58 57 20 26 42 47 50
47 8 0 15 8 15 18 0 21 121 160 153 176 28 14 29 40 2 44 -13 2 -39 -14 -70
-42z"/>
<path d="M3882 10195 c6 -14 15 -25 19 -25 5 0 3 11 -3 25 -6 14 -15 25 -19
25 -5 0 -3 -11 3 -25z"/>
<path d="M4105 10190 c3 -5 11 -10 16 -10 6 0 7 5 4 10 -3 6 -11 10 -16 10 -6
0 -7 -4 -4 -10z"/>
<path d="M4550 10174 c0 -12 9 -32 20 -45 25 -30 25 -14 0 31 -16 28 -19 31
-20 14z"/>
<path d="M4590 10163 c0 -5 11 -26 25 -48 28 -46 32 -67 10 -59 -23 9 -19 -23
12 -93 18 -39 33 -61 41 -58 7 2 34 -1 61 -7 42 -9 50 -15 55 -39 6 -34 41
-58 107 -75 75 -20 103 1 58 42 -16 15 -24 16 -39 6 -26 -16 -25 -17 -45 28
-20 45 -40 54 -32 14 4 -25 4 -26 -14 -8 -10 11 -40 63 -67 116 -39 78 -51 95
-62 85 -10 -9 -14 -9 -17 2 -3 7 -14 22 -25 33 -12 12 -17 26 -13 38 5 15 2
18 -8 14 -8 -3 -18 -1 -22 5 -7 13 -25 15 -25 4z m95 -223 c3 -5 1 -10 -4 -10
-6 0 -11 5 -11 10 0 6 2 10 4 10 3 0 8 -4 11 -10z"/>
<path d="M256 10135 c6 -31 11 -41 18 -34 2 2 -2 18 -10 34 l-14 30 6 -30z"/>
<path d="M2296 9982 c-3 -5 -19 -12 -35 -15 -26 -5 -32 -14 -45 -55 -7 -27
-24 -68 -35 -90 -26 -50 -18 -53 25 -11 18 17 42 36 55 43 27 14 67 112 52
127 -7 7 -13 7 -17 1z"/>
<path d="M2320 9909 c0 -5 5 -7 10 -4 6 3 10 8 10 11 0 2 -4 4 -10 4 -5 0 -10
-5 -10 -11z"/>
<path d="M4950 9900 c1 -15 11 -32 26 -44 l26 -18 -16 28 c-30 56 -36 61 -36
34z"/>
<path d="M4905 9880 c3 -5 8 -10 11 -10 2 0 4 5 4 10 0 6 -5 10 -11 10 -5 0
-7 -4 -4 -10z"/>
<path d="M4690 9850 c6 -11 20 -25 33 -31 18 -10 17 -6 -7 20 -34 36 -41 39
-26 11z"/>
<path d="M4587 9839 c-18 -11 -18 -11 0 -28 10 -9 39 -25 65 -34 67 -26 131
-78 181 -150 48 -67 144 -262 154 -308 6 -32 23 -40 24 -11 0 13 3 12 12 -6 8
-18 8 -25 -2 -32 -15 -8 -6 -85 10 -96 6 -3 7 12 3 38 -12 76 10 31 36 -74 15
-60 31 -103 39 -106 8 -3 11 0 8 5 -4 5 -18 63 -32 129 -14 65 -39 157 -55
203 -24 64 -28 87 -19 97 28 34 116 2 126 -47 7 -35 23 -49 23 -20 0 31 9 26
57 -26 48 -52 66 -52 34 0 -45 74 -157 157 -210 157 -9 0 -22 -9 -29 -20 -15
-24 -34 -27 -25 -4 5 14 2 16 -20 11 -22 -6 -26 -3 -32 22 -9 40 -45 89 -145
194 -107 113 -151 136 -203 106z"/>
<path d="M5020 9781 c0 -5 7 -15 17 -22 15 -13 15 -12 4 9 -12 23 -21 28 -21
13z"/>
<path d="M4460 9750 c0 -5 5 -10 10 -10 6 0 10 5 10 10 0 6 -4 10 -10 10 -5 0
-10 -4 -10 -10z"/>
<path d="M4645 9700 c3 -5 13 -10 21 -10 8 0 12 5 9 10 -3 6 -13 10 -21 10 -8
0 -12 -4 -9 -10z"/>
<path d="M5080 9700 c-18 -11 -26 -5 105 -85 140 -86 230 -149 277 -193 21
-20 41 -32 45 -28 5 4 -13 27 -38 50 -57 51 -296 217 -324 224 -27 7 -46 22
-39 33 7 12 -7 11 -26 -1z"/>
<path d="M1171 9402 c-17 -31 -13 -40 5 -14 9 13 14 26 11 29 -3 2 -10 -4 -16
-15z"/>
<path d="M5526 9382 c-3 -5 15 -24 41 -43 25 -19 63 -54 84 -79 21 -24 41 -42
44 -38 7 6 -143 168 -155 168 -5 0 -11 -4 -14 -8z"/>
<path d="M5540 9171 c0 -36 93 -209 197 -366 137 -207 201 -319 263 -464 30
-68 56 -119 57 -114 2 5 -10 50 -26 98 -36 105 -26 102 15 -5 16 -41 30 -67
32 -58 5 26 -35 133 -99 262 -35 71 -50 110 -36 94 12 -16 28 -28 35 -28 7 0
13 -10 13 -22 1 -18 3 -17 8 7 6 25 2 36 -28 70 -20 22 -62 75 -95 118 -32 42
-61 77 -63 77 -2 0 -1 -9 2 -20 13 -42 -6 -17 -41 51 -38 77 -53 87 -30 21 9
-23 13 -42 11 -42 -7 0 -83 127 -129 216 -26 51 -56 100 -66 109 -19 17 -20
17 -20 -4z"/>
<path d="M1720 8769 c0 -5 5 -7 10 -4 6 3 10 8 10 11 0 2 -4 4 -10 4 -5 0 -10
-5 -10 -11z"/>
<path d="M1746 8755 c-3 -9 -6 -26 -5 -38 1 -16 4 -12 10 12 10 34 6 55 -5 26z"/>
<path d="M1605 8600 c18 -70 67 -150 113 -183 75 -54 81 -54 26 -1 -28 28 -72
86 -98 129 -26 44 -44 69 -41 55z"/>
<path d="M1490 8510 c0 -8 5 -22 10 -30 9 -13 10 -13 10 0 0 8 -5 22 -10 30
-9 13 -10 13 -10 0z"/>
<path d="M6090 8495 c0 -14 5 -25 10 -25 6 0 10 -24 10 -54 0 -59 24 -209 40
-252 8 -20 14 -24 22 -16 16 16 -18 275 -44 330 -22 47 -38 54 -38 17z"/>
<path d="M1410 8469 c0 -15 41 -81 47 -75 5 5 -35 86 -42 86 -3 0 -5 -5 -5
-11z"/>
<path d="M1680 8413 c0 -4 18 -28 39 -53 40 -46 65 -51 37 -8 -17 26 -76 73
-76 61z"/>
<path d="M1655 8280 c4 -14 16 -33 27 -42 20 -18 20 -18 -11 -18 -30 0 -31 -1
-17 -22 27 -44 56 -159 56 -227 0 -92 -18 -201 -36 -229 -12 -19 -13 -26 -4
-32 9 -5 6 -18 -9 -48 -26 -51 -26 -51 0 -45 12 3 18 11 15 19 -3 8 6 31 20
52 76 110 100 203 91 346 -8 126 -7 123 -107 236 -29 32 -31 33 -25 10z"/>
<path d="M2071 8084 c0 -11 3 -14 6 -6 3 7 2 16 -1 19 -3 4 -6 -2 -5 -13z"/>
<path d="M2032 8013 c-14 -27 -30 -101 -38 -170 -6 -57 -4 -64 21 -97 15 -20
31 -36 36 -36 4 0 10 42 12 93 3 50 8 110 11 132 l5 40 -11 -37 c-18 -61 -31
-45 -23 27 7 66 3 79 -13 48z"/>
<path d="M5481 7804 c0 -11 3 -14 6 -6 3 7 2 16 -1 19 -3 4 -6 -2 -5 -13z"/>
<path d="M1793 7710 c4 -16 2 -42 -4 -56 -5 -15 -8 -29 -5 -31 6 -7 66 58 66
71 0 21 -18 40 -40 43 -20 3 -22 0 -17 -27z"/>
<path d="M2090 7653 c0 -5 7 -18 15 -29 12 -16 14 -16 15 -3 0 9 -7 22 -15 29
-8 7 -15 8 -15 3z"/>
<path d="M1860 7594 c0 -8 5 -12 10 -9 6 4 8 11 5 16 -9 14 -15 11 -15 -7z"/>
<path d="M1595 7549 c-4 -6 -5 -12 -2 -15 2 -3 7 2 10 11 7 17 1 20 -8 4z"/>
<path d="M1691 7464 c0 -11 3 -14 6 -6 3 7 2 16 -1 19 -3 4 -6 -2 -5 -13z"/>
<path d="M2107 7310 c-3 -11 -1 -20 4 -20 5 0 9 9 9 20 0 11 -2 20 -4 20 -2 0
-6 -9 -9 -20z"/>
<path d="M6160 7305 c0 -4 7 -19 15 -36 12 -21 16 -57 15 -127 -1 -141 8 -293
31 -527 6 -66 11 -168 10 -226 -1 -86 2 -108 14 -113 12 -4 15 -25 15 -94 0
-61 4 -94 14 -108 13 -17 14 -10 10 66 -40 720 -72 1092 -96 1146 -10 21 -28
33 -28 19z"/>
<path d="M5340 7280 c-19 -6 -12 -8 29 -9 30 -1 52 1 50 3 -11 9 -57 13 -79 6z"/>
<path d="M5457 7211 c-3 -12 -1 -21 3 -21 15 0 23 21 12 32 -6 6 -11 2 -15
-11z"/>
<path d="M5470 7090 c0 -61 31 -264 45 -292 8 -18 10 -28 3 -28 -12 0 -14 12
41 -415 74 -582 111 -755 207 -985 31 -74 59 -146 62 -160 3 -14 14 -31 25
-39 10 -7 25 -29 33 -48 31 -73 213 -236 331 -297 40 -20 40 -20 46 3 3 14 -8
24 -50 45 -45 22 -157 102 -233 166 -10 8 -26 31 -35 50 -10 19 -28 49 -40 65
-81 110 -220 502 -232 655 -3 41 -9 80 -14 86 -12 15 -32 151 -27 190 2 19 1
34 -3 34 -6 0 -26 111 -33 190 -5 56 -32 297 -46 405 -6 44 -17 114 -25 155
-8 41 -19 108 -25 149 -13 87 -29 126 -30 71z"/>
<path d="M6166 7111 c-4 -7 -5 -15 -2 -18 9 -9 19 4 14 18 -4 11 -6 11 -12 0z"/>
<path d="M6160 6855 c0 -8 5 -15 10 -15 6 0 10 7 10 15 0 8 -4 15 -10 15 -5 0
-10 -7 -10 -15z"/>
<path d="M6233 6105 c3 -11 8 -54 12 -95 6 -67 42 -216 50 -208 7 7 -8 128
-16 128 -5 0 -9 15 -9 34 0 49 -19 139 -31 151 -8 7 -10 4 -6 -10z"/>
<path d="M3610 4360 c0 -5 5 -10 10 -10 6 0 10 5 10 10 0 6 -4 10 -10 10 -5 0
-10 -4 -10 -10z"/>
<path d="M4010 3721 c0 -6 4 -13 10 -16 6 -3 7 1 4 9 -7 18 -14 21 -14 7z"/>
<path d="M7150 3322 c0 -17 4 -34 10 -37 6 -4 7 6 3 27 -8 44 -13 48 -13 10z"/>
<path d="M8276 2823 c-16 -208 -74 -401 -189 -631 -70 -142 -71 -143 -203
-275 -130 -131 -133 -133 -265 -198 -136 -68 -238 -101 -424 -138 -124 -25
-326 -54 -332 -47 -3 2 20 32 51 65 73 79 138 169 183 250 20 36 42 73 48 81
6 8 17 40 24 70 6 30 23 80 37 110 21 44 28 84 40 205 14 148 18 252 10 244
-2 -2 -14 -76 -25 -164 -11 -88 -32 -202 -46 -253 -25 -94 -103 -264 -167
-363 -39 -60 -204 -249 -218 -249 -5 0 -39 -26 -77 -58 -37 -32 -81 -65 -98
-73 -29 -15 -63 -33 -95 -50 -45 -26 -286 -114 -535 -198 -33 -11 -114 -39
-181 -62 l-121 -43 -81 32 c-70 27 -93 32 -169 32 -135 0 -193 -22 -333 -125
-101 -74 -101 -74 -495 -162 -379 -84 -423 -86 -660 -30 -88 20 -214 44 -280
53 -66 8 -160 29 -210 45 -49 16 -133 38 -185 50 -52 11 -100 24 -106 30 -6 5
-19 7 -28 3 -9 -4 -16 -1 -16 6 0 8 -9 10 -25 6 -14 -4 -25 -2 -25 3 0 5 -17
11 -37 14 -21 3 -123 31 -228 61 -129 39 -235 63 -330 76 -221 31 -485 63
-545 67 -30 1 -98 6 -150 9 -96 6 -301 -3 -665 -31 -226 -17 -290 -32 -426
-101 -47 -24 -98 -44 -112 -44 -17 0 -27 -5 -27 -15 0 -9 -9 -15 -25 -15 -31
0 -81 -24 -88 -43 -3 -7 -23 -19 -46 -27 -22 -7 -47 -20 -55 -29 -41 -46 -77
-79 -114 -103 -22 -14 -56 -50 -75 -80 -20 -29 -52 -69 -71 -87 -20 -19 -36
-39 -36 -44 0 -10 63 45 222 191 82 76 118 101 202 142 182 87 423 157 646
186 107 14 210 17 500 18 392 0 571 -12 780 -50 19 -3 55 -6 80 -6 30 -1 38
-3 25 -8 -16 -5 -12 -8 20 -14 105 -18 602 -128 617 -136 10 -6 40 -10 67 -10
28 0 52 -4 55 -9 3 -5 26 -9 51 -9 25 -1 60 -8 78 -16 17 -8 50 -17 72 -20 69
-11 219 -47 240 -58 14 -8 20 -8 23 1 4 13 34 15 47 2 6 -5 55 -17 109 -26
106 -18 242 -65 239 -82 -1 -7 38 -9 112 -8 102 2 119 5 161 29 25 14 54 26
63 26 9 0 21 4 27 10 5 5 42 14 82 20 39 5 89 19 109 30 21 11 52 20 70 20 18
0 52 6 75 14 24 8 61 17 83 21 l40 6 -45 -42 c-25 -23 -67 -60 -95 -82 -58
-46 -63 -55 -65 -122 -1 -38 -4 -45 -10 -30 -7 17 -9 14 -9 -13 -1 -37 36
-132 51 -132 5 0 6 5 3 10 -3 6 -8 44 -11 85 -5 70 -3 77 22 110 14 19 31 35
36 35 11 0 47 40 48 53 0 5 -5 5 -12 1 -7 -4 -8 -3 -4 5 4 6 11 9 16 6 5 -3
14 3 19 13 6 11 24 22 40 25 18 4 53 28 83 58 29 29 56 52 61 51 4 -1 12 8 18
20 12 24 106 98 125 98 7 0 14 7 17 15 7 17 111 49 137 42 11 -3 21 0 22 5 6
18 120 12 176 -10 90 -35 143 -77 257 -204 61 -67 122 -134 138 -148 15 -13
27 -30 27 -37 0 -8 11 -18 25 -25 13 -6 31 -26 40 -44 17 -37 31 -49 39 -35 5
8 -31 64 -94 143 -12 16 -28 28 -35 28 -8 0 -20 10 -26 22 -7 13 -31 48 -55
79 -24 31 -49 68 -55 82 -6 14 -36 42 -65 62 -30 21 -52 41 -49 45 2 4 53 20
112 34 133 34 234 65 248 76 5 4 98 41 205 81 286 106 363 144 515 256 24 18
58 26 164 38 277 32 536 100 686 180 44 23 125 70 179 103 89 55 103 68 138
127 63 105 73 90 61 -89 -4 -69 -7 -126 -6 -126 10 0 33 66 33 97 0 21 6 49
13 63 11 22 11 28 0 38 -7 7 -13 27 -12 45 0 30 1 31 11 10 15 -30 26 -29 38
5 6 15 15 35 21 46 8 14 6 23 -11 41 l-21 22 46 28 c54 31 53 41 -2 26 -21 -6
-41 -11 -46 -11 -4 0 17 48 47 108 93 186 139 360 152 570 8 132 0 152 -10 25z"/>
<path d="M2473 2729 c-18 -5 -33 -12 -33 -15 0 -9 53 5 65 17 10 10 11 10 -32
-2z"/>
<path d="M2345 2690 c-3 -5 -2 -10 4 -10 5 0 13 5 16 10 3 6 2 10 -4 10 -5 0
-13 -4 -16 -10z"/>
<path d="M7250 2665 c0 -22 4 -34 10 -30 6 3 10 17 10 30 0 13 -4 27 -10 30
-6 4 -10 -8 -10 -30z"/>
<path d="M8540 1947 c0 -3 11 -24 24 -48 14 -24 43 -91 66 -149 47 -118 69
-152 44 -70 -27 91 -61 175 -88 218 -22 36 -46 61 -46 49z"/>
<path d="M7954 1634 c-26 -62 -42 -161 -49 -294 -3 -69 -8 -136 -10 -150 -3
-20 -1 -19 11 8 8 18 17 54 20 80 3 26 15 80 26 120 18 59 20 77 10 93 -16 25
-15 50 2 75 8 11 17 36 21 56 10 51 -11 59 -31 12z"/>
<path d="M8630 1606 c0 -8 81 -48 86 -43 11 11 -11 37 -31 37 -13 0 -30 3 -39
6 -9 3 -16 3 -16 0z"/>
<path d="M8615 1570 c11 -5 29 -9 40 -9 17 -1 17 1 5 9 -8 5 -26 9 -40 9 -23
0 -23 -1 -5 -9z"/>
<path d="M8580 1540 c-12 -8 -12 -10 5 -10 11 0 27 5 35 10 12 8 12 10 -5 10
-11 0 -27 -5 -35 -10z"/>
<path d="M8633 1495 c49 -25 93 -33 82 -15 -3 6 -17 10 -29 10 -13 0 -29 7
-36 15 -7 8 -24 15 -39 15 -22 0 -19 -4 22 -25z"/>
<path d="M8635 1441 c-14 -6 -1 -10 50 -13 39 -2 72 -2 74 -1 22 15 -92 28
-124 14z"/>
<path d="M8675 1409 c22 -4 51 -8 65 -8 23 0 23 1 5 9 -11 5 -40 8 -65 8 l-45
0 40 -9z"/>
<path d="M7841 1320 c-14 -66 -13 -84 3 -40 21 57 27 90 17 90 -5 0 -14 -23
-20 -50z"/>
<path d="M8425 1310 l-40 -7 50 -1 c28 0 73 3 100 8 l50 7 -60 0 c-33 0 -78
-3 -100 -7z"/>
<path d="M8300 1260 c0 -5 5 -10 10 -10 6 0 10 5 10 10 0 6 -4 10 -10 10 -5 0
-10 -4 -10 -10z"/>
<path d="M7787 1133 c-4 -3 -7 -13 -7 -22 1 -13 3 -13 11 2 11 19 8 33 -4 20z"/>
<path d="M7840 1116 c0 -9 5 -16 10 -16 6 0 10 4 10 9 0 6 -4 13 -10 16 -5 3
-10 -1 -10 -9z"/>
<path d="M8139 1075 c-19 -13 -65 -43 -103 -66 -52 -32 -72 -52 -83 -78 -34
-87 -47 -111 -58 -111 -30 0 -73 69 -89 142 -8 40 -17 82 -19 93 -3 11 -5 -7
-6 -40 -1 -71 20 -161 52 -219 12 -23 25 -43 28 -46 4 -3 1 -34 -7 -70 -7 -36
-14 -76 -14 -89 0 -22 58 -91 78 -91 13 0 -14 99 -35 122 -15 17 -15 21 0 54
9 19 17 42 17 50 0 8 5 12 11 8 11 -6 9 -32 -7 -69 -7 -18 -6 -18 9 -6 10 8
17 28 17 50 0 37 23 74 52 84 11 4 15 13 11 26 -3 12 -1 21 6 21 17 0 49 59
44 81 -7 26 11 46 69 75 28 14 53 35 58 48 5 13 19 31 32 40 l22 16 -25 0
c-14 0 -41 -11 -60 -25z"/>
<path d="M7931 1049 c-26 -43 -44 -95 -38 -112 3 -7 7 -4 11 8 4 11 19 43 33
72 30 59 25 83 -6 32z"/>
<path d="M4780 799 c0 -5 5 -7 10 -4 6 3 10 8 10 11 0 2 -4 4 -10 4 -5 0 -10
-5 -10 -11z"/>
<path d="M8957 614 c-14 -14 -7 -35 11 -32 9 2 17 10 17 17 0 16 -18 25 -28
15z"/>
<path d="M6108 549 c-10 -5 -18 -15 -18 -20 0 -22 53 -79 73 -79 12 0 34 -12
49 -27 26 -25 42 -21 16 5 -23 23 1 24 36 2 30 -18 36 -19 36 -6 0 15 3 15 38
0 22 -10 74 -18 127 -20 85 -3 88 -3 55 11 -19 7 -45 14 -57 14 -12 1 -25 6
-29 12 -5 8 16 9 76 4 56 -5 85 -4 89 4 4 6 56 13 117 17 104 6 114 5 176 -20
36 -14 97 -33 134 -42 156 -36 194 -53 276 -126 140 -124 176 -161 182 -184 4
-13 11 -24 17 -24 6 0 8 7 5 16 -3 9 -6 22 -6 29 0 21 -57 82 -109 117 -25 17
-71 57 -101 88 -50 51 -63 58 -156 88 -55 18 -111 32 -123 32 -12 0 -19 4 -16
10 3 6 -5 10 -19 10 -13 0 -37 5 -53 12 -15 6 -109 15 -208 18 -99 4 -190 11
-203 15 -17 6 -22 4 -20 -6 2 -11 -20 -15 -111 -17 -69 -2 -118 1 -125 8 -5 5
-20 10 -32 10 -40 0 -84 21 -84 41 0 21 -7 23 -32 8z"/>
<path d="M8878 441 c-30 -25 -75 -48 -128 -65 -98 -31 -115 -32 -175 -6 -57
24 -55 24 -55 1 0 -37 25 -44 122 -37 65 4 107 13 144 30 62 29 121 71 135 98
13 24 12 23 -43 -21z"/>
<path d="M6110 441 c0 -5 5 -13 10 -16 6 -3 10 -2 10 4 0 5 -4 13 -10 16 -5 3
-10 2 -10 -4z"/>
<path d="M8225 419 c4 -5 18 -15 32 -20 25 -9 25 -10 7 -24 -14 -10 -16 -16
-7 -25 6 -7 16 -9 22 -6 19 12 12 44 -15 65 -28 22 -49 28 -39 10z"/>
<path d="M8477 379 c-23 -13 -101 -16 -141 -6 -26 7 -28 6 -17 -7 9 -10 30
-16 57 -16 23 0 46 -4 49 -10 17 -27 85 4 85 38 0 15 -9 15 -33 1z"/>
<path d="M7506 21 c-4 -7 -5 -15 -2 -18 9 -9 19 4 14 18 -4 11 -6 11 -12 0z"/>
</g>
</svg>
