<?xml version="1.0" standalone="no"?>
<!DOCTYPE svg PUBLIC "-//W3C//DTD SVG 20010904//EN"
 "http://www.w3.org/TR/2001/REC-SVG-20010904/DTD/svg10.dtd">
<svg version="1.0" xmlns="http://www.w3.org/2000/svg"
 width="1280.000000pt" height="1280.000000pt" viewBox="0 0 1280.000000 1280.000000"
 preserveAspectRatio="xMidYMid meet">
<metadata>
Created by potrace 1.15, written by Peter Selinger 2001-2017
</metadata>
<g transform="translate(0.000000,1280.000000) scale(0.100000,-0.100000)"
fill="#009688" stroke="none">
<path d="M8174 11628 c-12 -5 -26 -21 -32 -33 -9 -18 -22 -25 -59 -30 -97 -12
-349 -56 -383 -67 -95 -29 -310 -112 -350 -135 -153 -88 -219 -143 -316 -260
-54 -65 -99 -120 -100 -122 -2 -2 -25 10 -51 27 -81 52 -234 121 -308 139 -58
14 -218 81 -275 114 -38 22 -67 30 -95 24 -16 -3 -64 -9 -106 -13 -66 -6 -81
-11 -113 -40 -20 -17 -41 -32 -46 -32 -5 0 -36 -23 -70 -51 -34 -28 -82 -58
-107 -66 -59 -20 -200 -115 -281 -188 -34 -31 -68 -55 -75 -52 -6 3 -60 46
-119 95 -162 133 -304 194 -560 238 -142 24 -169 26 -378 21 l-225 -4 -22 23
c-14 15 -33 24 -52 24 -47 0 -148 -36 -188 -66 -20 -15 -58 -38 -84 -52 -55
-27 -149 -124 -149 -153 0 -11 5 -29 10 -40 11 -20 -11 -75 -55 -134 -55 -74
-155 -288 -204 -438 -42 -129 -54 -181 -65 -289 -15 -140 -12 -187 24 -348 11
-49 20 -98 20 -107 0 -13 -19 -25 -67 -42 -108 -39 -237 -107 -289 -154 -27
-24 -76 -55 -109 -69 -33 -14 -94 -43 -135 -64 -63 -33 -78 -46 -97 -83 -12
-24 -31 -54 -41 -65 -37 -40 -43 -67 -48 -209 -3 -85 -12 -161 -20 -189 -22
-67 -33 -211 -27 -321 6 -93 5 -94 -18 -100 -13 -3 -79 -18 -146 -32 -144 -30
-167 -39 -300 -117 -69 -40 -138 -93 -220 -167 -148 -136 -162 -151 -262 -286
-44 -60 -93 -127 -109 -147 -19 -26 -32 -35 -45 -32 -53 16 -112 -87 -129
-221 -18 -150 -19 -200 -6 -250 11 -41 19 -53 47 -67 31 -16 71 -65 71 -89 0
-15 96 -251 125 -308 12 -25 63 -107 112 -181 69 -103 113 -158 190 -231 92
-88 114 -103 243 -169 114 -58 140 -75 135 -88 -37 -96 -67 -241 -74 -357 -5
-71 -14 -143 -20 -159 -7 -16 -16 -57 -22 -90 -22 -131 -22 -144 0 -182 12
-19 21 -47 21 -61 0 -39 30 -92 61 -109 16 -8 33 -22 38 -32 5 -10 39 -41 74
-68 36 -27 77 -68 91 -90 44 -70 180 -191 314 -280 2 -1 -26 -60 -62 -131 -75
-150 -90 -197 -110 -348 -12 -87 -13 -141 -6 -260 5 -82 12 -168 16 -190 8
-53 61 -270 79 -320 18 -54 26 -105 16 -105 -4 0 -13 -12 -20 -26 -10 -23 -8
-35 18 -90 39 -84 200 -247 279 -284 52 -23 55 -24 84 -7 38 22 46 21 116 -3
70 -25 284 -85 332 -94 19 -3 102 -13 185 -21 134 -13 164 -13 284 1 142 16
188 30 356 109 58 27 101 42 103 36 7 -21 120 -174 170 -231 28 -32 70 -70 94
-85 24 -15 55 -46 70 -69 44 -68 141 -177 170 -192 15 -8 36 -14 47 -14 11 0
42 -12 68 -26 33 -17 57 -24 78 -20 17 3 57 9 90 15 33 5 83 14 110 20 28 6
106 13 175 15 114 4 246 28 332 61 14 6 30 -21 91 -147 72 -147 79 -159 176
-260 132 -138 296 -255 489 -349 78 -38 155 -72 170 -75 53 -13 98 -45 111
-79 18 -51 53 -60 215 -58 207 3 326 46 326 117 0 16 13 35 37 55 21 17 41 31
46 31 5 0 61 37 125 82 208 145 426 387 518 575 14 28 42 116 62 195 l37 143
70 -5 c126 -9 290 -3 346 13 37 11 97 15 195 15 147 -1 162 3 217 48 16 13 35
24 42 24 7 0 27 12 44 26 30 25 41 44 118 198 19 37 51 86 72 107 48 50 119
171 162 276 19 45 40 83 47 83 7 0 66 -13 130 -29 160 -41 198 -44 342 -32
120 11 202 29 385 88 79 25 306 132 361 169 55 38 83 46 118 33 26 -9 38 -9
62 4 45 23 113 95 139 147 13 26 31 52 40 60 23 19 50 75 70 142 17 60 11 89
-24 114 -13 10 -14 25 -3 121 28 254 3 576 -60 758 -50 146 -70 184 -168 313
l-93 122 70 73 c84 89 155 186 187 258 13 30 44 77 69 106 25 29 55 68 67 87
12 20 25 36 30 36 16 0 41 71 39 112 -1 24 4 56 10 71 15 39 14 67 -5 102 -9
17 -25 54 -35 84 -10 30 -30 74 -44 99 -14 24 -25 58 -25 74 0 48 -57 204
-112 311 -31 58 -48 101 -42 106 5 4 57 45 115 89 123 94 146 119 231 245 56
83 106 188 173 364 25 65 85 326 85 370 0 49 23 105 47 114 13 5 28 21 34 36
15 38 4 153 -20 212 -11 25 -27 70 -36 100 -17 56 -57 122 -93 155 -15 13 -31
17 -53 14 -28 -4 -41 4 -123 80 -168 158 -240 214 -389 302 -114 68 -177 98
-275 131 -126 43 -128 43 -292 47 l-166 4 -12 86 c-17 125 -47 237 -84 312
-18 36 -38 92 -44 125 -6 33 -16 80 -22 105 -7 25 -14 58 -18 74 -3 17 -22 45
-42 63 -46 42 -45 40 -82 85 -22 26 -43 39 -68 44 -20 3 -62 15 -93 25 -31 10
-76 21 -100 25 -24 4 -63 20 -88 35 -53 34 -168 73 -276 94 -44 9 -90 18 -102
20 -20 5 -21 10 -25 182 -4 172 -6 182 -42 298 -35 112 -107 258 -199 405 -35
57 -171 225 -216 267 -54 51 -70 81 -64 120 5 29 1 38 -32 68 -40 38 -111 78
-160 89 -16 4 -48 16 -70 26 -73 35 -180 49 -221 28z m234 -183 c19 -16 40
-52 58 -98 25 -65 36 -80 123 -162 156 -146 225 -217 267 -275 126 -173 205
-402 203 -594 0 -55 -6 -116 -13 -135 -12 -33 -16 -35 -82 -49 -76 -15 -210
-67 -289 -112 -77 -44 -133 -97 -168 -158 -27 -48 -32 -53 -41 -37 -6 9 -28
43 -48 74 -32 48 -38 64 -38 111 0 74 -41 193 -88 254 -47 63 -177 158 -262
191 -80 32 -199 49 -299 43 -99 -6 -188 -48 -283 -135 -37 -35 -76 -63 -86
-63 -9 -1 -41 -9 -70 -19 l-52 -18 7 36 c13 60 7 173 -12 231 -29 89 -96 220
-147 288 -27 35 -48 68 -48 73 0 34 105 176 166 225 115 91 271 177 386 212
107 33 179 43 384 51 l194 8 73 36 c113 56 123 57 165 22z m-2146 -365 c47
-17 135 -38 195 -46 66 -10 136 -28 180 -46 80 -33 214 -111 265 -153 60 -51
128 -146 177 -249 56 -116 71 -170 71 -255 l0 -61 -70 0 c-95 0 -161 -15 -259
-61 -96 -45 -154 -98 -172 -159 -7 -22 -15 -40 -18 -39 -3 0 -60 75 -126 166
-192 265 -207 277 -304 262 -66 -10 -91 -45 -206 -287 -55 -116 -102 -211
-105 -212 -3 0 -15 18 -28 41 -31 53 -94 92 -194 119 -69 18 -99 21 -183 17
-55 -3 -112 -9 -127 -12 -25 -7 -27 -5 -38 52 -32 150 49 430 162 557 64 74
205 183 283 220 39 19 105 46 147 61 43 15 113 49 155 75 43 27 85 47 93 45 8
-2 54 -18 102 -35z m-1510 -35 c227 -39 483 -174 553 -290 l19 -32 -37 -81
c-99 -216 -114 -431 -40 -563 2 -3 -18 -2 -44 2 -26 4 -66 8 -88 8 -30 1 -50
9 -77 31 -64 53 -197 100 -283 100 -96 0 -303 -81 -380 -149 -82 -72 -153
-160 -174 -215 -31 -84 -43 -180 -30 -247 10 -52 9 -62 -14 -115 -14 -33 -29
-69 -32 -82 -6 -21 -10 -18 -57 34 -31 33 -75 67 -110 85 -87 44 -228 79 -346
86 -93 5 -105 8 -122 30 -25 32 -60 189 -60 272 0 269 79 486 271 741 113 151
122 168 139 260 22 121 68 149 182 111 77 -26 129 -26 277 -2 203 35 324 39
453 16z m3219 -694 c75 -29 197 -117 230 -167 36 -54 59 -128 59 -190 0 -68 9
-90 82 -202 51 -77 72 -100 129 -137 82 -54 130 -110 187 -218 39 -73 43 -88
40 -134 -8 -88 -38 -122 -161 -176 -217 -95 -291 -100 -445 -28 -112 52 -194
66 -300 51 -89 -12 -175 -34 -243 -60 l-49 -20 -21 43 c-64 125 -184 261 -278
315 -30 17 -86 38 -125 48 -156 37 -211 88 -311 284 -59 118 -64 132 -59 173
14 101 55 137 219 192 76 26 87 27 203 21 109 -6 130 -5 190 14 137 44 154 53
196 97 42 45 108 91 161 111 49 19 229 8 296 -17z m-1576 -255 c127 -172 169
-236 229 -356 84 -170 116 -219 179 -277 58 -54 107 -78 215 -107 114 -31 144
-47 213 -116 55 -55 162 -206 157 -221 -2 -4 -44 -34 -94 -67 -49 -34 -122
-91 -162 -127 l-72 -67 -26 21 c-36 28 -64 26 -110 -8 -62 -45 -188 -180 -232
-249 -65 -101 -87 -177 -87 -307 0 -60 3 -125 7 -142 l8 -33 -43 0 c-23 0 -59
-5 -79 -10 -20 -6 -79 -12 -131 -13 l-94 -2 -6 90 c-10 153 -66 274 -178 384
-58 57 -227 174 -276 191 -37 13 -83 -2 -90 -30 -3 -11 -7 -20 -10 -20 -2 0
-42 23 -89 51 -47 29 -131 71 -187 95 -117 50 -114 44 -67 156 35 85 110 198
152 230 18 14 73 44 122 68 158 75 233 177 291 395 14 55 33 123 42 150 19 64
245 536 254 533 4 -2 78 -97 164 -212z m-1516 -25 c27 -10 70 -34 96 -54 26
-20 61 -39 79 -41 200 -29 217 -29 301 -2 95 30 195 34 307 11 80 -17 112 -35
145 -85 38 -55 38 -89 3 -217 -61 -223 -94 -269 -239 -343 -53 -26 -115 -64
-138 -84 -74 -64 -159 -209 -204 -346 -9 -30 -22 -54 -28 -52 -105 24 -277 28
-372 8 -80 -17 -123 -38 -222 -109 -41 -30 -96 -60 -121 -67 -60 -17 -167 -8
-305 24 -118 28 -158 56 -188 134 -16 42 -15 46 7 125 34 119 74 193 147 268
49 52 72 85 99 150 53 123 59 152 47 218 -12 61 -2 149 22 207 22 53 123 161
188 201 32 19 95 46 140 59 93 27 156 26 236 -5z m4410 -77 c120 -26 210 -62
283 -112 60 -41 142 -81 218 -107 l65 -22 37 -103 c21 -56 62 -146 93 -200 71
-124 105 -248 112 -410 6 -138 -7 -199 -73 -338 -53 -114 -101 -181 -163 -228
l-46 -36 -14 24 c-37 60 -143 148 -231 192 -108 54 -162 64 -227 43 -26 -9
-49 -14 -50 -13 -3 3 53 220 96 376 12 41 21 97 21 124 0 44 -4 53 -44 92 -40
41 -47 44 -97 44 -30 0 -111 -14 -179 -30 -130 -32 -299 -70 -311 -70 -4 0 0
19 8 43 24 67 13 141 -34 238 -46 97 -108 179 -163 217 -22 15 -39 30 -40 33
-1 15 85 100 132 132 66 43 182 93 273 117 99 26 196 25 334 -6z m-5525 -525
c103 -22 180 -55 247 -106 l48 -36 -38 -43 c-55 -63 -98 -149 -121 -245 -30
-126 -25 -184 23 -253 l20 -28 -254 7 c-298 9 -310 6 -355 -70 -25 -43 -26
-50 -16 -93 6 -26 56 -140 111 -255 56 -114 101 -208 101 -210 0 -1 -36 -2
-79 -2 -78 0 -80 -1 -150 -49 -89 -60 -183 -161 -216 -232 -14 -30 -28 -54
-32 -54 -19 0 -121 69 -162 110 -102 102 -196 263 -220 378 -16 75 -14 315 3
382 8 30 24 81 35 113 22 58 44 158 56 248 6 46 7 47 90 98 46 28 122 86 168
129 59 55 112 93 174 124 233 120 338 136 567 87z m5512 -296 c-3 -10 -28
-106 -56 -213 -70 -268 -81 -300 -154 -457 -86 -186 -99 -233 -94 -347 4 -82
9 -101 49 -186 41 -90 44 -100 43 -180 -1 -123 -59 -328 -90 -316 -79 30 -240
70 -364 90 -33 6 -35 9 -35 42 0 52 -31 72 -140 89 -273 45 -457 -1 -614 -151
l-76 -72 -45 42 c-25 23 -54 48 -66 56 -11 8 -35 36 -52 62 -18 26 -43 55 -55
64 l-22 17 82 82 c99 98 146 187 169 317 16 86 13 237 -7 343 -11 62 -48 100
-89 91 -27 -5 -27 -5 -34 70 -6 63 -45 242 -71 323 -5 16 3 23 50 40 83 31
230 54 295 47 34 -4 93 -24 153 -52 187 -88 274 -83 543 31 140 59 189 74 414
125 140 32 259 59 263 59 5 1 6 -7 3 -16z m1287 -264 c263 -67 435 -185 663
-456 89 -104 102 -116 173 -149 138 -65 149 -96 80 -221 l-42 -75 -13 -172
c-17 -221 -22 -254 -50 -354 -71 -245 -270 -507 -439 -577 -36 -16 -38 -15
-68 10 -105 86 -266 173 -372 200 -67 17 -112 19 -170 5 -22 -5 -40 -8 -41 -7
-1 1 9 36 22 77 21 62 33 83 74 120 64 59 123 153 144 231 23 81 14 231 -20
339 -28 89 -126 244 -180 285 -60 46 -181 93 -256 101 -56 5 -76 13 -117 43
-27 20 -57 41 -68 47 -17 11 -16 13 10 23 126 49 248 223 310 442 19 64 30 87
48 96 40 21 218 16 312 -8z m-3088 -140 c30 -122 43 -294 26 -356 -6 -22 -30
-69 -53 -103 -35 -53 -40 -66 -32 -88 12 -35 49 -53 83 -41 14 5 51 40 81 79
30 38 58 69 63 69 13 1 7 -158 -9 -229 -29 -130 -120 -243 -259 -325 -72 -42
-97 -71 -97 -110 0 -21 -8 -26 -57 -40 -75 -22 -164 -73 -256 -145 -70 -56
-75 -58 -79 -37 -35 187 -56 249 -111 341 -32 54 -34 60 -18 71 25 18 22 75
-10 179 -47 153 -32 316 39 421 36 53 115 145 124 145 4 0 5 -42 2 -92 -4 -84
-2 -96 18 -120 25 -33 69 -37 92 -10 9 9 20 49 26 88 5 40 18 89 28 110 40 88
346 346 366 310 4 -8 19 -60 33 -117z m-2297 -34 c6 -6 6 -41 0 -90 -5 -44 -7
-137 -5 -207 6 -127 5 -128 -17 -128 -12 0 -33 -10 -45 -22 -23 -21 -24 -25
-18 -147 12 -277 108 -462 298 -576 35 -21 65 -39 67 -40 1 -1 -13 -28 -33
-60 -19 -33 -35 -64 -35 -71 0 -7 -22 -38 -50 -70 -27 -31 -52 -65 -55 -75 -6
-17 -12 -15 -58 20 -191 143 -396 159 -684 55 -92 -33 -118 -60 -111 -112 l6
-39 -57 -18 c-68 -21 -220 -91 -279 -129 -42 -26 -44 -27 -58 -9 -34 43 -85
144 -108 215 -31 93 -33 165 -6 267 47 176 13 285 -160 521 -50 69 -109 161
-130 205 -154 323 -190 399 -190 406 0 7 83 5 405 -11 134 -6 200 -15 310 -40
102 -24 164 -32 230 -32 130 0 173 17 339 137 77 56 120 65 288 62 81 -1 151
-7 156 -12z m278 -104 c206 -101 285 -174 318 -291 20 -71 51 -99 94 -84 42
15 49 52 29 151 -10 47 -16 88 -13 90 10 10 129 -91 172 -146 81 -102 111
-233 92 -391 -12 -97 -7 -131 23 -159 19 -18 19 -21 6 -48 -34 -64 -50 -157
-51 -284 l-1 -126 -50 29 c-112 65 -214 102 -313 114 -55 6 -59 8 -68 38 -10
33 -4 30 -189 117 -112 53 -192 128 -235 221 -29 64 -67 224 -56 235 4 4 23
-9 44 -28 99 -94 141 -110 182 -69 31 31 24 57 -34 118 -29 31 -60 71 -68 87
-36 72 -53 219 -43 375 7 95 10 110 25 110 9 0 71 -26 136 -59z m4038 -63 c94
-50 183 -133 236 -221 26 -43 52 -70 103 -105 117 -80 140 -91 197 -97 143
-15 218 -58 291 -166 73 -110 90 -161 92 -293 2 -105 0 -114 -27 -169 -16 -32
-60 -88 -96 -125 -62 -62 -69 -74 -100 -167 -30 -92 -33 -109 -31 -213 2 -127
-10 -182 -65 -298 -38 -81 -62 -100 -141 -117 l-56 -12 -113 59 c-136 71 -214
130 -248 188 -13 24 -36 90 -50 147 -30 121 -66 184 -159 274 -51 49 -189 149
-220 160 -5 1 2 30 16 63 30 70 62 196 72 275 9 78 -8 164 -50 261 -66 148
-59 217 42 429 53 112 57 117 106 143 71 36 105 34 201 -16z m-6938 -386 c6
-4 26 -36 44 -72 101 -201 258 -356 389 -385 l33 -7 -63 -64 c-52 -53 -71 -65
-113 -74 -60 -13 -182 -86 -225 -136 -62 -69 -125 -229 -136 -341 -10 -102 10
-245 45 -318 35 -73 128 -172 192 -204 33 -16 52 -35 64 -60 9 -20 28 -53 41
-73 12 -21 23 -39 23 -40 0 -2 -26 -3 -58 -4 -122 -1 -259 -78 -410 -230 -113
-114 -118 -115 -252 -48 -75 38 -111 64 -195 145 -190 184 -257 306 -341 627
-42 158 -51 180 -110 246 -85 94 -75 146 43 222 57 36 76 63 193 266 89 154
169 251 280 340 106 86 297 184 395 203 80 15 145 18 161 7z m1000 -148 c45
-15 56 -25 124 -120 137 -190 153 -243 121 -390 -12 -52 -21 -120 -21 -152 0
-104 45 -234 127 -370 l46 -75 -55 -48 c-73 -64 -159 -178 -199 -263 -28 -59
-34 -86 -41 -185 -5 -64 -16 -135 -24 -159 -24 -64 -80 -128 -194 -221 -92
-75 -109 -85 -152 -89 -80 -8 -126 17 -183 95 -71 99 -103 176 -116 274 -10
86 -20 111 -87 234 -30 55 -49 77 -87 100 -68 42 -142 112 -171 160 -16 28
-27 70 -36 136 -16 127 -3 201 54 316 39 80 49 92 106 130 35 24 82 47 105 53
80 21 101 34 184 119 72 75 87 97 113 165 36 93 78 154 152 218 107 92 142
102 234 72z m2971 -179 c136 -68 223 -238 242 -477 l7 -90 -35 -51 c-51 -76
-95 -178 -137 -317 -20 -69 -38 -127 -40 -129 -1 -1 -19 29 -38 67 -69 137
-138 244 -202 311 l-64 68 -11 99 c-16 149 0 277 48 381 26 56 132 163 162
163 9 0 40 -11 68 -25z m1835 -268 c4 -1 -25 -27 -64 -57 -40 -30 -79 -67 -88
-82 -13 -25 -13 -31 0 -55 24 -43 66 -42 132 1 72 47 126 60 218 51 116 -10
329 -61 354 -85 12 -12 -95 -153 -183 -241 -93 -92 -159 -127 -256 -136 -78
-6 -105 -23 -105 -62 0 -56 33 -71 151 -71 l92 0 -24 -26 c-39 -41 -163 -120
-221 -140 -88 -31 -221 -25 -334 14 -101 35 -149 40 -174 17 -15 -14 -23 -12
-76 23 -80 52 -148 80 -265 106 l-99 22 36 35 c79 76 167 214 194 305 10 34
16 41 32 36 31 -8 66 18 105 77 115 176 225 253 383 270 55 5 166 4 192 -2z
m-867 -88 c26 -12 32 -23 44 -79 33 -151 -42 -315 -220 -486 -63 -60 -65 -61
-135 -67 -86 -8 -214 -44 -348 -98 -54 -22 -100 -38 -102 -37 -1 2 20 54 47
117 57 130 94 249 104 336 8 69 31 98 154 197 76 61 146 101 216 125 51 16
199 12 240 -8z m-1655 -155 c65 -19 206 -90 270 -138 37 -27 49 -43 64 -92 27
-87 76 -179 162 -305 l77 -112 -34 7 c-184 36 -273 47 -390 45 -121 -3 -127
-2 -172 24 -25 15 -80 54 -121 87 -150 119 -227 266 -209 399 5 38 10 44 55
67 91 46 178 51 298 18z m3394 -179 c83 -80 109 -128 132 -240 28 -137 81
-225 182 -298 26 -19 103 -65 172 -102 69 -37 148 -84 176 -104 78 -54 394
-311 394 -319 -1 -10 -357 -167 -470 -207 -52 -19 -147 -46 -210 -60 -244 -57
-331 -116 -420 -285 -62 -119 -106 -162 -223 -220 -91 -46 -185 -76 -196 -64
-4 5 -18 38 -31 74 -25 71 -101 229 -131 272 -23 31 -23 38 -6 38 8 0 22 9 32
20 28 31 14 84 -51 194 -134 224 -278 328 -494 356 -41 5 -78 10 -81 10 -11 0
1 183 16 233 8 28 15 64 15 80 0 26 3 29 23 23 101 -29 250 -25 343 8 105 37
236 127 330 227 79 85 91 122 53 160 l-20 20 71 75 c39 42 101 115 136 164
l65 89 61 -37 c33 -20 92 -68 132 -107z m-4227 89 c65 -18 192 -103 240 -159
44 -53 91 -80 126 -73 24 5 30 -1 57 -48 38 -67 131 -168 209 -224 34 -25 61
-48 61 -51 0 -4 -12 -10 -27 -13 -71 -17 -215 -100 -282 -162 -39 -36 -72 -60
-76 -54 -15 25 -78 9 -179 -45 -169 -91 -288 -104 -432 -50 -67 25 -154 72
-154 83 0 4 39 15 88 24 69 13 92 22 110 43 28 33 28 50 -2 80 -23 23 -29 24
-109 18 -64 -4 -96 -2 -132 10 -67 23 -201 116 -292 201 l-77 73 64 36 c91 50
254 114 327 127 66 11 130 3 185 -26 45 -23 100 -15 116 18 22 47 2 73 -93
120 -47 23 -85 45 -85 49 0 7 109 35 165 43 44 6 133 -3 192 -20z m5433 -245
c64 -14 214 -91 294 -151 82 -61 142 -140 201 -263 59 -122 75 -174 86 -279
10 -96 29 -181 60 -264 l19 -53 -39 -57 c-48 -71 -103 -180 -126 -250 -25 -77
-104 -190 -204 -290 -68 -69 -102 -96 -163 -125 -148 -71 -358 -105 -474 -76
-40 10 -45 15 -40 33 48 165 18 392 -62 474 -20 21 -48 45 -61 53 -24 15 -21
17 120 78 346 152 361 161 373 247 9 69 -18 109 -143 207 -57 45 -143 114
-191 153 l-87 70 49 18 c70 25 110 65 157 158 52 102 71 173 71 261 l0 67 58
0 c31 0 77 -5 102 -11z m-6326 -253 c44 -40 117 -99 161 -131 44 -31 80 -60
80 -64 -1 -3 -7 -18 -15 -33 -10 -21 -11 -34 -2 -52 25 -55 229 -182 359 -222
112 -35 259 -32 374 9 90 32 89 32 89 9 0 -11 13 -45 29 -78 16 -32 32 -79 36
-104 4 -25 14 -60 21 -79 17 -41 14 -45 -49 -60 -172 -42 -316 -165 -401 -345
-39 -83 -86 -219 -86 -250 0 -29 27 -66 49 -66 10 0 20 -2 22 -5 3 -2 -9 -48
-27 -101 -18 -53 -40 -140 -49 -193 -10 -53 -19 -102 -21 -110 -8 -25 -159 1
-288 50 -62 23 -107 63 -214 187 -101 118 -186 148 -463 162 -149 8 -210 16
-310 41 -68 16 -175 41 -237 55 -63 13 -121 28 -129 32 -12 7 -6 18 29 60 307
364 293 349 476 496 182 147 241 263 242 473 0 108 47 199 169 326 35 37 66
67 69 67 2 0 41 -33 86 -74z m3401 -36 c104 -27 189 -67 246 -118 47 -42 109
-144 109 -180 0 -32 -87 -120 -149 -151 -31 -16 -80 -34 -109 -40 -67 -14
-236 -14 -322 0 -61 10 -69 14 -135 78 -72 70 -150 125 -290 204 -48 28 -74
48 -65 51 8 2 74 21 145 40 124 35 267 95 310 130 26 22 147 15 260 -14z
m-1580 -130 c83 -30 183 -48 311 -56 60 -4 115 -10 122 -14 10 -5 -11 -27 -65
-73 -101 -83 -201 -190 -250 -264 -38 -58 -39 -58 -135 -90 -231 -76 -407 -63
-523 39 -46 41 -47 43 -42 89 19 160 162 287 422 374 38 14 77 22 85 20 8 -2
42 -14 75 -25z m665 -6 c0 -17 -26 -19 -36 -3 -7 12 15 31 28 23 4 -3 8 -12 8
-20z m270 -303 c95 -65 161 -100 235 -125 43 -14 55 -24 87 -74 137 -214 171
-396 100 -546 l-32 -68 -82 4 c-108 5 -177 36 -263 119 -64 62 -145 169 -183
244 -16 33 -18 49 -11 90 13 84 10 193 -11 335 -11 74 -20 139 -20 143 0 5 21
-7 48 -27 26 -20 85 -62 132 -95z m-351 -57 c1 -96 22 -226 50 -307 l21 -59
-21 -61 c-50 -152 -141 -297 -221 -356 -46 -34 -122 -65 -180 -74 -33 -5 -40
-2 -69 31 -107 122 -118 313 -29 552 l31 85 86 55 c60 39 120 91 202 176 l116
121 7 -41 c3 -23 7 -78 7 -122z m-3646 51 c18 -129 142 -321 239 -369 29 -15
69 -26 91 -26 l38 0 -78 -92 c-43 -51 -115 -135 -160 -187 -46 -52 -90 -114
-99 -137 -16 -41 -16 -47 2 -96 27 -74 56 -88 326 -148 124 -27 229 -50 234
-50 4 0 -8 -17 -28 -37 -57 -60 -71 -97 -76 -204 -5 -110 14 -218 52 -294 l24
-46 -39 -19 c-128 -66 -368 -66 -541 0 -92 34 -286 181 -342 258 -14 20 -48
71 -75 113 -27 42 -79 108 -116 148 l-67 71 11 82 c6 46 10 164 9 263 -3 192
3 225 71 405 57 151 272 345 433 391 35 10 68 18 74 18 6 1 14 -19 17 -44z
m4917 -147 c17 -22 25 -23 172 -23 133 -1 161 -4 217 -24 108 -38 186 -102
263 -215 30 -44 36 -57 22 -52 -11 3 -54 15 -97 25 -88 23 -120 17 -139 -24
-12 -28 1 -72 24 -80 122 -42 135 -50 188 -105 58 -60 121 -168 175 -303 30
-73 31 -83 17 -89 -32 -13 -249 -8 -336 7 -113 20 -164 45 -224 111 -55 60
-87 69 -122 34 -37 -37 -23 -73 77 -194 13 -16 22 -30 19 -33 -10 -10 -183 40
-237 68 -111 60 -196 173 -248 330 -22 68 -51 104 -86 111 -16 3 -20 12 -23
53 -5 86 -32 181 -81 281 l-48 97 81 -6 c100 -7 230 7 299 32 67 25 66 25 87
-1z m-1865 -231 c-41 -127 -52 -274 -29 -358 3 -11 -3 -19 -21 -23 -31 -8 -52
-48 -60 -117 -26 -207 -111 -346 -262 -427 -63 -33 -143 -65 -143 -56 0 2 18
40 40 84 45 89 49 121 20 150 -40 40 -69 25 -125 -61 -33 -51 -57 -75 -97 -99
-83 -47 -240 -92 -400 -114 -47 -6 -47 -2 -14 145 48 211 115 333 210 381 61
30 76 47 76 84 0 35 -28 64 -63 64 -11 0 -57 -18 -104 -40 -97 -45 -96 -46
-37 71 46 92 119 169 201 212 72 37 185 67 253 67 55 0 108 24 119 53 9 24 12
24 63 15 70 -13 216 -3 303 21 39 10 75 19 81 20 8 1 4 -25 -11 -72z m3922
-192 c66 -33 82 -59 100 -164 20 -111 12 -214 -22 -305 -24 -65 -25 -77 -19
-180 7 -116 19 -159 58 -211 28 -36 66 -152 66 -199 0 -44 -46 -181 -81 -243
-31 -54 -141 -158 -197 -187 -57 -29 -148 -39 -226 -25 -74 14 -77 13 -219
-36 -62 -22 -91 -40 -148 -91 -81 -72 -146 -107 -251 -135 -120 -31 -173 -22
-233 41 -39 40 -67 178 -69 330 -1 131 5 149 91 256 65 80 92 141 110 244 15
82 13 262 -2 316 -6 18 1 22 57 38 35 9 110 40 168 68 128 62 206 135 264 247
73 141 131 181 330 231 140 35 160 36 223 5z m-3137 -62 c46 -73 141 -171 213
-218 45 -30 56 -42 51 -57 -11 -36 6 -68 75 -143 115 -123 161 -227 161 -360
0 -65 -31 -209 -49 -228 -4 -4 -23 27 -41 70 -19 42 -42 85 -52 95 -36 36
-108 12 -108 -36 0 -12 9 -47 20 -79 43 -122 12 -250 -116 -477 l-47 -84 -40
45 c-112 124 -206 275 -228 362 -9 39 -9 64 1 118 10 61 10 73 -4 94 -20 31
-74 34 -99 7 -9 -10 -26 -58 -38 -107 -11 -50 -23 -92 -25 -94 -7 -7 -81 161
-93 211 -31 132 0 267 97 417 41 63 56 131 33 146 -6 3 13 27 40 52 60 56 137
170 175 259 15 35 30 64 33 64 3 -1 22 -26 41 -57z m780 -225 c0 -26 95 -161
148 -209 105 -96 271 -156 480 -174 70 -6 80 -5 105 15 18 14 27 31 27 49 l0
28 68 -10 c37 -5 133 -7 214 -5 l148 3 6 -43 c11 -71 -2 -272 -20 -323 -9 -25
-44 -79 -78 -120 -70 -85 -104 -151 -119 -235 -13 -70 -7 -142 26 -324 24
-127 25 -154 23 -412 l-3 -277 -231 120 c-160 83 -258 141 -320 189 -288 224
-366 252 -576 211 -117 -22 -159 -20 -256 17 -55 21 -162 80 -200 110 l-23 18
55 93 c48 82 88 165 126 266 8 22 14 25 22 17 20 -20 63 -14 87 12 12 13 36
57 52 97 110 271 102 473 -26 664 -40 59 -41 65 -23 71 11 3 44 26 75 51 30
25 74 51 97 59 22 8 54 25 71 38 30 24 45 25 45 4z m-1458 -169 c29 -6 71 -21
93 -34 22 -12 57 -28 78 -34 20 -7 37 -14 37 -16 0 -1 -12 -29 -26 -61 -52
-118 -65 -235 -39 -359 25 -116 148 -348 207 -389 29 -21 62 -20 83 0 18 19
17 19 38 -22 23 -44 125 -180 187 -248 l54 -59 -57 -53 c-73 -68 -168 -132
-229 -156 -34 -13 -75 -18 -142 -18 -230 0 -303 -43 -554 -327 -64 -73 -143
-139 -423 -357 -36 -28 -53 -36 -58 -27 -4 6 -16 58 -25 114 -10 56 -29 154
-43 217 -21 93 -27 157 -33 335 -12 313 -36 386 -164 499 -39 34 -82 74 -98
89 -55 56 -103 198 -115 336 l-6 68 59 7 c88 11 248 45 309 66 54 19 55 19 55
-1 0 -10 10 -29 21 -40 27 -27 82 -22 196 17 183 62 318 156 393 274 24 38 89
194 90 218 0 1 13 -4 30 -13 16 -8 53 -20 82 -26z m4709 -119 c165 -170 263
-480 238 -750 -5 -49 -22 -162 -39 -249 l-32 -160 22 -83 c26 -103 21 -141
-23 -168 -17 -11 -52 -22 -77 -25 -88 -11 -120 -27 -277 -132 -269 -181 -406
-231 -663 -240 -129 -5 -154 -3 -230 17 -47 12 -100 31 -117 42 -33 19 -33 20
-33 98 0 216 -82 451 -179 515 -34 22 -40 35 -16 35 9 0 43 11 78 25 58 24 66
25 132 14 143 -24 275 16 391 118 101 89 157 176 200 307 31 95 35 121 31 176
-6 81 -37 175 -81 243 -30 45 -35 63 -39 133 l-5 82 55 -25 c112 -51 315 -35
498 41 44 19 89 34 99 35 11 0 40 -20 67 -49z m-6945 10 c189 -15 238 -39 345
-175 26 -34 65 -74 86 -88 93 -64 240 -112 376 -124 l77 -6 0 -61 c0 -98 35
-241 79 -331 34 -69 54 -94 135 -168 128 -118 137 -142 144 -365 l4 -163 -28
-40 c-52 -75 -92 -89 -221 -79 -113 10 -177 30 -269 87 -73 46 -117 57 -264
70 -55 4 -75 1 -120 -18 -42 -18 -73 -23 -139 -24 -85 0 -87 1 -173 49 -110
62 -165 119 -224 231 l-46 90 5 85 c4 64 12 100 32 144 29 63 29 57 6 243 -7
59 -17 87 -51 142 -49 82 -66 141 -76 262 -9 121 8 166 79 214 58 39 60 39
243 25z m-306 -728 c12 -71 11 -75 -15 -135 -36 -80 -46 -215 -22 -298 24 -79
109 -216 171 -275 72 -69 195 -141 270 -161 79 -20 207 -12 277 18 47 21 54
21 138 9 l89 -14 -34 -40 c-47 -54 -73 -130 -85 -248 -10 -101 -1 -243 21
-317 8 -30 7 -38 -13 -59 -36 -39 -173 -102 -271 -124 -71 -17 -125 -22 -246
-22 -209 -1 -292 21 -600 160 -77 35 -95 38 -197 44 -149 7 -146 5 -153 163
-6 115 -8 128 -49 227 -97 235 -131 372 -131 524 0 92 21 245 46 326 21 71 88
201 119 230 l23 22 69 -18 c51 -14 106 -18 223 -19 178 0 241 14 312 68 24 19
44 29 45 23 0 -6 7 -44 13 -84z m5786 -505 c66 -96 104 -246 104 -412 0 -127
-22 -203 -103 -360 -41 -79 -70 -118 -140 -190 -48 -49 -113 -127 -144 -172
-47 -69 -62 -83 -87 -87 -17 -2 -67 -9 -111 -15 -44 -5 -125 -24 -180 -42 -92
-29 -111 -31 -235 -31 -158 0 -241 13 -326 52 -144 65 -306 207 -357 312 -15
31 -27 59 -27 62 0 2 13 7 30 11 49 11 142 78 212 154 87 94 113 147 113 229
0 34 2 61 5 60 3 -2 100 -52 215 -112 248 -130 282 -138 352 -87 29 21 45 42
52 68 6 22 11 142 11 282 0 232 1 243 18 229 60 -53 132 -65 253 -40 99 20
199 64 259 113 19 16 39 28 44 26 6 -2 24 -24 42 -50z m-2261 -75 c77 -38 140
-59 212 -71 55 -8 92 -5 223 18 113 19 193 -12 357 -141 97 -76 104 -84 119
-134 22 -78 12 -114 -58 -195 -78 -91 -152 -142 -248 -174 -67 -22 -91 -37
-160 -99 -93 -83 -115 -112 -130 -175 -14 -59 -76 -148 -126 -183 -60 -43
-198 -88 -269 -88 -81 0 -211 26 -250 50 -46 28 -126 118 -156 176 -23 43 -40
57 -130 111 -93 55 -114 63 -195 76 -105 17 -179 51 -269 124 -78 63 -98 100
-92 176 5 54 9 62 77 142 160 189 207 215 401 225 124 6 141 9 204 38 87 41
174 104 249 180 l58 60 62 -43 c33 -23 88 -56 121 -73z m-1952 -349 c21 -140
81 -425 97 -460 15 -35 28 -47 65 -63 26 -11 56 -20 68 -20 34 0 98 36 172 97
38 31 119 96 179 145 l111 88 6 -53 c9 -77 43 -131 126 -197 81 -66 161 -108
236 -125 51 -12 52 -12 51 -49 -3 -90 -140 -286 -267 -382 -82 -62 -140 -88
-272 -120 -119 -30 -205 -34 -395 -20 -59 4 -133 3 -170 -2 l-65 -9 -76 76
c-41 43 -113 102 -160 133 -173 115 -314 310 -354 491 -25 111 -17 328 13 408
37 94 40 96 98 66 86 -43 160 -60 274 -60 116 -1 173 16 219 67 14 14 28 26
31 26 4 0 10 -17 13 -37z m2586 -661 c55 -87 187 -199 317 -270 68 -37 69 -38
72 -81 11 -145 -114 -398 -281 -569 -73 -75 -205 -166 -332 -229 -161 -80
-202 -110 -246 -174 -45 -66 -91 -96 -133 -85 -14 3 -51 29 -81 56 -71 64 -82
70 -265 125 -261 79 -400 155 -545 300 -124 124 -218 278 -232 380 -5 39 -3
42 37 70 60 41 199 192 239 260 46 75 70 148 71 208 0 27 3 47 8 45 13 -6 73
-42 106 -63 17 -11 43 -42 57 -69 36 -67 142 -171 203 -201 72 -35 212 -58
312 -52 78 6 208 43 282 81 82 42 194 187 207 268 6 34 19 52 74 104 l66 62
16 -58 c8 -32 30 -80 48 -108z"/>
</g>
</svg>
